<svg xmlns="http://www.w3.org/2000/svg" xmlns:xlink="http://www.w3.org/1999/xlink" contentStyleType="text/css" data-diagram-type="DESCRIPTION" height="1267px" preserveAspectRatio="none" style="width:2640px;height:1267px;background:#FEFEFE;" version="1.1" viewBox="0 0 2640 1267" width="2640px" zoomAndPan="magnify"><title>&#12502;&#12521;&#12531;&#12489;&#35201;&#32032;&#12398;&#27083;&#36896;</title><defs/><g><rect fill="#FEFEFE" height="1267" style="stroke:none;stroke-width:1;" width="2640" x="0" y="0"/><g class="title" data-source-line="2"><text fill="#000000" font-family="sans-serif" font-size="14" font-weight="bold" lengthAdjust="spacing" textLength="126" x="1250.4543" y="23.5352">&#12502;&#12521;&#12531;&#12489;&#35201;&#32032;&#12398;&#27083;&#36896;</text></g><!--cluster Brand Identity\n(????????????)--><g class="cluster" data-entity="Brand Identity.n.............." data-source-line="8" data-uid="ent0002" id="cluster_Brand Identity.n.............."><rect fill="#E3F2FD" height="985.46" rx="5" ry="5" style="stroke:#181818;stroke-width:1;" width="767" x="710" y="83.2883"/><text fill="#000000" font-family="sans-serif" font-size="14" font-weight="bold" lengthAdjust="spacing" textLength="101.876" x="1042.562" y="98.8234">Brand Identity</text><text fill="#000000" font-family="sans-serif" font-size="14" font-weight="bold" lengthAdjust="spacing" textLength="178.377" x="1004.3115" y="115.3117">(&#12502;&#12521;&#12531;&#12489;&#12450;&#12452;&#12487;&#12531;&#12486;&#12451;&#12486;&#12451;)</text></g><!--cluster Visual Identity\n(?????????????)--><g class="cluster" data-entity="Visual Identity.n..............." data-source-line="10" data-uid="ent0003" id="cluster_Visual Identity.n..............."><rect fill="#BBDEFB" height="119.98" rx="5" ry="5" style="stroke:#181818;stroke-width:1;" width="559" x="894" y="142.2883"/><text fill="#000000" font-family="sans-serif" font-size="14" font-weight="bold" lengthAdjust="spacing" textLength="104.2207" x="1121.3896" y="157.8234">Visual Identity</text><text fill="#000000" font-family="sans-serif" font-size="14" font-weight="bold" lengthAdjust="spacing" textLength="192.377" x="1077.3115" y="174.3117">(&#12499;&#12472;&#12517;&#12450;&#12523;&#12450;&#12452;&#12487;&#12531;&#12486;&#12451;&#12486;&#12451;)</text></g><!--cluster Verbal Identity\n(??????????)--><g class="cluster" data-entity="Verbal Identity.n............" data-source-line="17" data-uid="ent0008" id="cluster_Verbal Identity.n............"><rect fill="#C5CAE9" height="345.95" rx="5" ry="5" style="stroke:#181818;stroke-width:1;" width="440" x="1013" y="698.7983"/><text fill="#000000" font-family="sans-serif" font-size="14" font-weight="bold" lengthAdjust="spacing" textLength="106.4014" x="1179.7993" y="714.3334">Verbal Identity</text><text fill="#000000" font-family="sans-serif" font-size="14" font-weight="bold" lengthAdjust="spacing" textLength="150.377" x="1157.8115" y="730.8217">(&#35328;&#35486;&#12450;&#12452;&#12487;&#12531;&#12486;&#12451;&#12486;&#12451;)</text></g><!--cluster Brand Values\n(??????)--><g class="cluster" data-entity="Brand Values.n........" data-source-line="24" data-uid="ent0013" id="cluster_Brand Values.n........"><rect fill="#C8E6C9" height="492.72" rx="5" ry="5" style="stroke:#181818;stroke-width:1;" width="136" x="734" y="142.2883"/><text fill="#000000" font-family="sans-serif" font-size="14" font-weight="bold" lengthAdjust="spacing" textLength="94.377" x="754.8115" y="157.8234">Brand Values</text><text fill="#000000" font-family="sans-serif" font-size="14" font-weight="bold" lengthAdjust="spacing" textLength="94.377" x="754.8115" y="174.3117">(&#12502;&#12521;&#12531;&#12489;&#20385;&#20516;)</text></g><!--cluster Brand Expression\n(??????)--><g class="cluster" data-entity="Brand Expression.n........" data-source-line="31" data-uid="ent0017" id="cluster_Brand Expression.n........"><rect fill="#FFF9C4" height="395.95" rx="5" ry="5" style="stroke:#181818;stroke-width:1;" width="643" x="1501" y="865.7783"/><text fill="#000000" font-family="sans-serif" font-size="14" font-weight="bold" lengthAdjust="spacing" textLength="125.542" x="1759.729" y="881.3134">Brand Expression</text><text fill="#000000" font-family="sans-serif" font-size="14" font-weight="bold" lengthAdjust="spacing" textLength="94.377" x="1775.3115" y="897.8017">(&#12502;&#12521;&#12531;&#12489;&#34920;&#29694;)</text></g><!--cluster Content\n(?????)--><g class="cluster" data-entity="Content.n......." data-source-line="33" data-uid="ent0018" id="cluster_Content.n......."><rect fill="#FFF59D" height="119.97" rx="5" ry="5" style="stroke:#181818;stroke-width:1;" width="528" x="1525" y="924.7783"/><text fill="#000000" font-family="sans-serif" font-size="14" font-weight="bold" lengthAdjust="spacing" textLength="56.8545" x="1760.5728" y="940.3134">Content</text><text fill="#000000" font-family="sans-serif" font-size="14" font-weight="bold" lengthAdjust="spacing" textLength="80.377" x="1748.8115" y="956.8017">(&#12467;&#12531;&#12486;&#12531;&#12484;)</text></g><!--cluster Channels\n(????)--><g class="cluster" data-entity="Channels.n......" data-source-line="39" data-uid="ent0022" id="cluster_Channels.n......"><rect fill="#FFECB3" height="119.98" rx="5" ry="5" style="stroke:#181818;stroke-width:1;" width="595" x="1525" y="1117.7483"/><text fill="#000000" font-family="sans-serif" font-size="14" font-weight="bold" lengthAdjust="spacing" textLength="66.459" x="1789.2705" y="1133.2834">Channels</text><text fill="#000000" font-family="sans-serif" font-size="14" font-weight="bold" lengthAdjust="spacing" textLength="66.377" x="1789.3115" y="1149.7717">(&#12481;&#12515;&#12493;&#12523;)</text></g><!--cluster Brand Experience\n(??????)--><g class="cluster" data-entity="Brand Experience.n........" data-source-line="47" data-uid="ent0027" id="cluster_Brand Experience.n........"><rect fill="#E1BEE7" height="805.69" rx="5" ry="5" style="stroke:#181818;stroke-width:1;" width="639" x="7" y="456.0383"/><text fill="#000000" font-family="sans-serif" font-size="14" font-weight="bold" lengthAdjust="spacing" textLength="124.626" x="264.187" y="471.5734">Brand Experience</text><text fill="#000000" font-family="sans-serif" font-size="14" font-weight="bold" lengthAdjust="spacing" textLength="94.377" x="279.3115" y="488.0617">(&#12502;&#12521;&#12531;&#12489;&#20307;&#39443;)</text></g><!--cluster Customer Touchpoints\n(????)--><g class="cluster" data-entity="Customer Touchpoints.n......" data-source-line="49" data-uid="ent0028" id="cluster_Customer Touchpoints.n......"><rect fill="#CE93D8" height="722.69" rx="5" ry="5" style="stroke:#181818;stroke-width:1;" width="180" x="31" y="515.0383"/><text fill="#000000" font-family="sans-serif" font-size="14" font-weight="bold" lengthAdjust="spacing" textLength="164.4521" x="38.7739" y="530.5734">Customer Touchpoints</text><text fill="#000000" font-family="sans-serif" font-size="14" font-weight="bold" lengthAdjust="spacing" textLength="66.377" x="87.8115" y="547.0617">(&#39015;&#23458;&#25509;&#28857;)</text></g><!--cluster Internal Culture\n(????)--><g class="cluster" data-entity="Internal Culture.n......" data-source-line="56" data-uid="ent0033" id="cluster_Internal Culture.n......"><rect fill="#F8BBD0" height="345.95" rx="5" ry="5" style="stroke:#181818;stroke-width:1;" width="387" x="235" y="698.7983"/><text fill="#000000" font-family="sans-serif" font-size="14" font-weight="bold" lengthAdjust="spacing" textLength="113.8252" x="371.5874" y="714.3334">Internal Culture</text><text fill="#000000" font-family="sans-serif" font-size="14" font-weight="bold" lengthAdjust="spacing" textLength="66.377" x="395.3115" y="730.8217">(&#20869;&#37096;&#25991;&#21270;)</text></g><!--entity Logo--><g class="entity" data-entity="Logo" data-source-line="11" data-uid="ent0004" id="entity_Logo"><rect fill="#F1F1F1" height="52.9766" rx="5" ry="5" style="stroke:#181818;stroke-width:0.5;" width="53.3936" x="910.3" y="193.2883"/><text fill="#000000" font-family="sans-serif" font-size="14" lengthAdjust="spacing" textLength="33.3936" x="920.3" y="216.8234">Logo</text><text fill="#000000" font-family="sans-serif" font-size="14" lengthAdjust="spacing" textLength="28" x="920.3" y="233.3117">&#12525;&#12468;</text></g><!--entity Color--><g class="entity" data-entity="Color" data-source-line="12" data-uid="ent0005" id="entity_Color"><rect fill="#F1F1F1" height="52.9766" rx="5" ry="5" style="stroke:#181818;stroke-width:0.5;" width="118" x="1166" y="193.2883"/><text fill="#000000" font-family="sans-serif" font-size="14" lengthAdjust="spacing" textLength="86.6797" x="1176" y="216.8234">Color Palette</text><text fill="#000000" font-family="sans-serif" font-size="14" lengthAdjust="spacing" textLength="98" x="1176" y="233.3117">&#12459;&#12521;&#12540;&#12497;&#12524;&#12483;&#12488;</text></g><!--entity Typo--><g class="entity" data-entity="Typo" data-source-line="13" data-uid="ent0006" id="entity_Typo"><rect fill="#F1F1F1" height="52.9766" rx="5" ry="5" style="stroke:#181818;stroke-width:0.5;" width="118" x="1319" y="193.2883"/><text fill="#000000" font-family="sans-serif" font-size="14" lengthAdjust="spacing" textLength="80.582" x="1329" y="216.8234">Typography</text><text fill="#000000" font-family="sans-serif" font-size="14" lengthAdjust="spacing" textLength="98" x="1329" y="233.3117">&#12479;&#12452;&#12509;&#12464;&#12521;&#12501;&#12451;</text></g><!--entity Image--><g class="entity" data-entity="Image" data-source-line="14" data-uid="ent0007" id="entity_Image"><rect fill="#F1F1F1" height="52.9766" rx="5" ry="5" style="stroke:#181818;stroke-width:0.5;" width="132" x="999" y="193.2883"/><text fill="#000000" font-family="sans-serif" font-size="14" lengthAdjust="spacing" textLength="90.7744" x="1009" y="216.8234">Imagery Style</text><text fill="#000000" font-family="sans-serif" font-size="14" lengthAdjust="spacing" textLength="112" x="1009" y="233.3117">&#12452;&#12513;&#12540;&#12472;&#12473;&#12479;&#12452;&#12523;</text></g><!--entity Name--><g class="entity" data-entity="Name" data-source-line="18" data-uid="ent0009" id="entity_Name"><rect fill="#F1F1F1" height="52.9766" rx="5" ry="5" style="stroke:#181818;stroke-width:0.5;" width="102.3867" x="1181.81" y="749.7983"/><text fill="#000000" font-family="sans-serif" font-size="14" lengthAdjust="spacing" textLength="82.3867" x="1191.81" y="773.3334">Brand Name</text><text fill="#000000" font-family="sans-serif" font-size="14" lengthAdjust="spacing" textLength="70" x="1191.81" y="789.8217">&#12502;&#12521;&#12531;&#12489;&#21517;</text></g><!--entity Tag--><g class="entity" data-entity="Tag" data-source-line="19" data-uid="ent0010" id="entity_Tag"><rect fill="#F1F1F1" height="52.9766" rx="5" ry="5" style="stroke:#181818;stroke-width:0.5;" width="90" x="1188" y="975.7783"/><text fill="#000000" font-family="sans-serif" font-size="14" lengthAdjust="spacing" textLength="49.8955" x="1198" y="999.3134">Tagline</text><text fill="#000000" font-family="sans-serif" font-size="14" lengthAdjust="spacing" textLength="70" x="1198" y="1015.8017">&#12479;&#12464;&#12521;&#12452;&#12531;</text></g><!--entity Voice--><g class="entity" data-entity="Voice" data-source-line="20" data-uid="ent0011" id="entity_Voice"><rect fill="#F1F1F1" height="52.9766" rx="5" ry="5" style="stroke:#181818;stroke-width:0.5;" width="118" x="1029" y="749.7983"/><text fill="#000000" font-family="sans-serif" font-size="14" lengthAdjust="spacing" textLength="89.332" x="1039" y="773.3334">Voice &amp; Tone</text><text fill="#000000" font-family="sans-serif" font-size="14" lengthAdjust="spacing" textLength="98" x="1039" y="789.8217">&#12508;&#12452;&#12473;&#65286;&#12488;&#12540;&#12531;</text></g><!--entity Message--><g class="entity" data-entity="Message" data-source-line="21" data-uid="ent0012" id="entity_Message"><rect fill="#F1F1F1" height="52.9766" rx="5" ry="5" style="stroke:#181818;stroke-width:0.5;" width="118" x="1319" y="749.7983"/><text fill="#000000" font-family="sans-serif" font-size="14" lengthAdjust="spacing" textLength="94.2129" x="1329" y="773.3334">Key Messages</text><text fill="#000000" font-family="sans-serif" font-size="14" lengthAdjust="spacing" textLength="98" x="1329" y="789.8217">&#12461;&#12540;&#12513;&#12483;&#12475;&#12540;&#12472;</text></g><!--entity Mission--><g class="entity" data-entity="Mission" data-source-line="25" data-uid="ent0014" id="entity_Mission"><rect fill="#F1F1F1" height="52.9766" rx="5" ry="5" style="stroke:#181818;stroke-width:0.5;" width="90" x="764" y="193.2883"/><text fill="#000000" font-family="sans-serif" font-size="14" lengthAdjust="spacing" textLength="51.7139" x="774" y="216.8234">Mission</text><text fill="#000000" font-family="sans-serif" font-size="14" lengthAdjust="spacing" textLength="70" x="774" y="233.3117">&#12511;&#12483;&#12471;&#12519;&#12531;</text></g><!--entity Vision--><g class="entity" data-entity="Vision" data-source-line="26" data-uid="ent0015" id="entity_Vision"><rect fill="#F1F1F1" height="52.9766" rx="5" ry="5" style="stroke:#181818;stroke-width:0.5;" width="76" x="771" y="340.0583"/><text fill="#000000" font-family="sans-serif" font-size="14" lengthAdjust="spacing" textLength="41.6719" x="781" y="363.5934">Vision</text><text fill="#000000" font-family="sans-serif" font-size="14" lengthAdjust="spacing" textLength="56" x="781" y="380.0817">&#12499;&#12472;&#12519;&#12531;</text></g><!--entity Values--><g class="entity" data-entity="Values" data-source-line="27" data-uid="ent0016" id="entity_Values"><rect fill="#F1F1F1" height="52.9766" rx="5" ry="5" style="stroke:#181818;stroke-width:0.5;" width="104" x="750" y="566.0383"/><text fill="#000000" font-family="sans-serif" font-size="14" lengthAdjust="spacing" textLength="80.8008" x="760" y="589.5734">Core Values</text><text fill="#000000" font-family="sans-serif" font-size="14" lengthAdjust="spacing" textLength="84" x="760" y="606.0617">&#12467;&#12450;&#12496;&#12522;&#12517;&#12540;</text></g><!--entity Copy--><g class="entity" data-entity="Copy" data-source-line="34" data-uid="ent0019" id="entity_Copy"><rect fill="#F1F1F1" height="52.9766" rx="5" ry="5" style="stroke:#181818;stroke-width:0.5;" width="146" x="1541" y="975.7783"/><text fill="#000000" font-family="sans-serif" font-size="14" lengthAdjust="spacing" textLength="87.2949" x="1551" y="999.3134">Copy Writing</text><text fill="#000000" font-family="sans-serif" font-size="14" lengthAdjust="spacing" textLength="126" x="1551" y="1015.8017">&#12467;&#12500;&#12540;&#12521;&#12452;&#12486;&#12451;&#12531;&#12464;</text></g><!--entity Story--><g class="entity" data-entity="Story" data-source-line="35" data-uid="ent0020" id="entity_Story"><rect fill="#F1F1F1" height="52.9766" rx="5" ry="5" style="stroke:#181818;stroke-width:0.5;" width="146" x="1891" y="975.7783"/><text fill="#000000" font-family="sans-serif" font-size="14" lengthAdjust="spacing" textLength="77.0137" x="1901" y="999.3134">Storytelling</text><text fill="#000000" font-family="sans-serif" font-size="14" lengthAdjust="spacing" textLength="126" x="1901" y="1015.8017">&#12473;&#12488;&#12540;&#12522;&#12540;&#12486;&#12522;&#12531;&#12464;</text></g><!--entity Content--><g class="entity" data-entity="Content" data-source-line="36" data-uid="ent0021" id="entity_Content"><rect fill="#F1F1F1" height="52.9766" rx="5" ry="5" style="stroke:#181818;stroke-width:0.5;" width="133.6816" x="1722.16" y="975.7783"/><text fill="#000000" font-family="sans-serif" font-size="14" lengthAdjust="spacing" textLength="113.6816" x="1732.16" y="999.3134">Content Strategy</text><text fill="#000000" font-family="sans-serif" font-size="14" lengthAdjust="spacing" textLength="98" x="1732.16" y="1015.8017">&#12467;&#12531;&#12486;&#12531;&#12484;&#25126;&#30053;</text></g><!--entity Web--><g class="entity" data-entity="Web" data-source-line="40" data-uid="ent0023" id="entity_Web"><rect fill="#F1F1F1" height="52.9766" rx="5" ry="5" style="stroke:#181818;stroke-width:0.5;" width="104" x="2000" y="1168.7483"/><text fill="#000000" font-family="sans-serif" font-size="14" lengthAdjust="spacing" textLength="52.8076" x="2010" y="1192.2834">Website</text><text fill="#000000" font-family="sans-serif" font-size="14" lengthAdjust="spacing" textLength="84" x="2010" y="1208.7717">&#12454;&#12455;&#12502;&#12469;&#12452;&#12488;</text></g><!--entity Social--><g class="entity" data-entity="Social" data-source-line="41" data-uid="ent0024" id="entity_Social"><rect fill="#F1F1F1" height="52.9766" rx="5" ry="5" style="stroke:#181818;stroke-width:0.5;" width="146" x="1819" y="1168.7483"/><text fill="#000000" font-family="sans-serif" font-size="14" lengthAdjust="spacing" textLength="84.0137" x="1829" y="1192.2834">Social Media</text><text fill="#000000" font-family="sans-serif" font-size="14" lengthAdjust="spacing" textLength="126" x="1829" y="1208.7717">&#12477;&#12540;&#12471;&#12515;&#12523;&#12513;&#12487;&#12451;&#12450;</text></g><!--entity Print--><g class="entity" data-entity="Print" data-source-line="42" data-uid="ent0025" id="entity_Print"><rect fill="#F1F1F1" height="52.9766" rx="5" ry="5" style="stroke:#181818;stroke-width:0.5;" width="117.3848" x="1666.31" y="1168.7483"/><text fill="#000000" font-family="sans-serif" font-size="14" lengthAdjust="spacing" textLength="97.3848" x="1676.31" y="1192.2834">Print Materials</text><text fill="#000000" font-family="sans-serif" font-size="14" lengthAdjust="spacing" textLength="42" x="1676.31" y="1208.7717">&#21360;&#21047;&#29289;</text></g><!--entity Package--><g class="entity" data-entity="Package" data-source-line="43" data-uid="ent0026" id="entity_Package"><rect fill="#F1F1F1" height="52.9766" rx="5" ry="5" style="stroke:#181818;stroke-width:0.5;" width="90" x="1541" y="1168.7483"/><text fill="#000000" font-family="sans-serif" font-size="14" lengthAdjust="spacing" textLength="68.749" x="1551" y="1192.2834">Packaging</text><text fill="#000000" font-family="sans-serif" font-size="14" lengthAdjust="spacing" textLength="70" x="1551" y="1208.7717">&#12497;&#12483;&#12465;&#12540;&#12472;</text></g><!--entity Product--><g class="entity" data-entity="Product" data-source-line="50" data-uid="ent0029" id="entity_Product"><rect fill="#F1F1F1" height="52.9766" rx="5" ry="5" style="stroke:#181818;stroke-width:0.5;" width="71.9736" x="116.01" y="566.0383"/><text fill="#000000" font-family="sans-serif" font-size="14" lengthAdjust="spacing" textLength="51.9736" x="126.01" y="589.5734">Product</text><text fill="#000000" font-family="sans-serif" font-size="14" lengthAdjust="spacing" textLength="28" x="126.01" y="606.0617">&#35069;&#21697;</text></g><!--entity Service--><g class="entity" data-entity="Service" data-source-line="51" data-uid="ent0030" id="entity_Service"><rect fill="#F1F1F1" height="52.9766" rx="5" ry="5" style="stroke:#181818;stroke-width:0.5;" width="76" x="107" y="749.7983"/><text fill="#000000" font-family="sans-serif" font-size="14" lengthAdjust="spacing" textLength="47.332" x="117" y="773.3334">Service</text><text fill="#000000" font-family="sans-serif" font-size="14" lengthAdjust="spacing" textLength="56" x="117" y="789.8217">&#12469;&#12540;&#12499;&#12473;</text></g><!--entity Support--><g class="entity" data-entity="Support" data-source-line="52" data-uid="ent0031" id="entity_Support"><rect fill="#F1F1F1" height="52.9766" rx="5" ry="5" style="stroke:#181818;stroke-width:0.5;" width="76" x="99" y="975.7783"/><text fill="#000000" font-family="sans-serif" font-size="14" lengthAdjust="spacing" textLength="53.416" x="109" y="999.3134">Support</text><text fill="#000000" font-family="sans-serif" font-size="14" lengthAdjust="spacing" textLength="56" x="109" y="1015.8017">&#12469;&#12509;&#12540;&#12488;</text></g><!--entity Community--><g class="entity" data-entity="Community" data-source-line="53" data-uid="ent0032" id="entity_Community"><rect fill="#F1F1F1" height="52.9766" rx="5" ry="5" style="stroke:#181818;stroke-width:0.5;" width="104" x="91" y="1168.7483"/><text fill="#000000" font-family="sans-serif" font-size="14" lengthAdjust="spacing" textLength="78.4014" x="101" y="1192.2834">Community</text><text fill="#000000" font-family="sans-serif" font-size="14" lengthAdjust="spacing" textLength="84" x="101" y="1208.7717">&#12467;&#12511;&#12517;&#12491;&#12486;&#12451;</text></g><!--entity Training--><g class="entity" data-entity="Training" data-source-line="57" data-uid="ent0034" id="entity_Training"><rect fill="#F1F1F1" height="52.9766" rx="5" ry="5" style="stroke:#181818;stroke-width:0.5;" width="146" x="460" y="749.7983"/><text fill="#000000" font-family="sans-serif" font-size="14" lengthAdjust="spacing" textLength="125.9727" x="470" y="773.3334">Employee Training</text><text fill="#000000" font-family="sans-serif" font-size="14" lengthAdjust="spacing" textLength="126" x="470" y="789.8217">&#24467;&#26989;&#21729;&#12488;&#12524;&#12540;&#12491;&#12531;&#12464;</text></g><!--entity Internal--><g class="entity" data-entity="Internal" data-source-line="58" data-uid="ent0035" id="entity_Internal"><rect fill="#F1F1F1" height="52.9766" rx="5" ry="5" style="stroke:#181818;stroke-width:0.5;" width="174" x="251" y="749.7983"/><text fill="#000000" font-family="sans-serif" font-size="14" lengthAdjust="spacing" textLength="107.9463" x="261" y="773.3334">Internal Comms</text><text fill="#000000" font-family="sans-serif" font-size="14" lengthAdjust="spacing" textLength="154" x="261" y="789.8217">&#31038;&#20869;&#12467;&#12511;&#12517;&#12491;&#12465;&#12540;&#12471;&#12519;&#12531;</text></g><!--entity Champions--><g class="entity" data-entity="Champions" data-source-line="59" data-uid="ent0036" id="entity_Champions"><rect fill="#F1F1F1" height="52.9766" rx="5" ry="5" style="stroke:#181818;stroke-width:0.5;" width="160" x="258" y="975.7783"/><text fill="#000000" font-family="sans-serif" font-size="14" lengthAdjust="spacing" textLength="119.9023" x="268" y="999.3134">Brand Champions</text><text fill="#000000" font-family="sans-serif" font-size="14" lengthAdjust="spacing" textLength="140" x="268" y="1015.8017">&#12502;&#12521;&#12531;&#12489;&#12481;&#12515;&#12531;&#12500;&#12458;&#12531;</text></g><g class="entity" data-entity="GMN62" data-source-line="103" data-uid="ent0063" id="entity_GMN62"><path d="M1493.01,181.5083 L1493.01,258.061 A5,5 0 0 0 1498.01,263.061 L1635.9885,263.061 A5,5 0 0 0 1640.9885,258.061 L1640.9885,186.5083 L1630.9885,176.5083 L1498.01,176.5083 A5,5 0 0 0 1493.01,181.5083" fill="#FEFFDD" style="stroke:#181818;stroke-width:0.5;"/><path d="M1630.9885,176.5083 L1630.9885,184.0083 A2.5,2.5 0 0 0 1633.4885,186.5083 L1640.9885,186.5083 L1630.9885,176.5083" fill="#FEFFDD" style="stroke:#181818;stroke-width:1;"/><text fill="#000000" font-family="sans-serif" font-size="13" font-weight="bold" lengthAdjust="spacing" textLength="86.7979" x="1499.01" y="194.0766">Core Identity</text><text fill="#000000" font-family="sans-serif" font-size="13" lengthAdjust="spacing" textLength="126.9785" x="1499.01" y="209.3872">Defines who we are:</text><text fill="#000000" font-family="sans-serif" font-size="13" lengthAdjust="spacing" textLength="114.626" x="1499.01" y="224.6977">What we look like,</text><text fill="#000000" font-family="sans-serif" font-size="13" lengthAdjust="spacing" textLength="93.9834" x="1499.01" y="240.0083">How we speak,</text><text fill="#000000" font-family="sans-serif" font-size="13" lengthAdjust="spacing" textLength="113.8325" x="1499.01" y="255.3188">What we stand for</text></g><g class="entity" data-entity="GMN65" data-source-line="111" data-uid="ent0066" id="entity_GMN65"><path d="M2160.38,963.9883 L2160.38,1040.541 A5,5 0 0 0 2165.38,1045.541 L2296.611,1045.541 A5,5 0 0 0 2301.611,1040.541 L2301.611,968.9883 L2291.611,958.9883 L2165.38,958.9883 A5,5 0 0 0 2160.38,963.9883" fill="#FEFFDD" style="stroke:#181818;stroke-width:0.5;"/><path d="M2291.611,958.9883 L2291.611,966.4883 A2.5,2.5 0 0 0 2294.111,968.9883 L2301.611,968.9883 L2291.611,958.9883" fill="#FEFFDD" style="stroke:#181818;stroke-width:1;"/><text fill="#000000" font-family="sans-serif" font-size="13" font-weight="bold" lengthAdjust="spacing" textLength="105.4917" x="2166.38" y="976.5566">Execution Layer</text><text fill="#000000" font-family="sans-serif" font-size="13" lengthAdjust="spacing" textLength="110.2144" x="2166.38" y="991.8672">How we show up:</text><text fill="#000000" font-family="sans-serif" font-size="13" lengthAdjust="spacing" textLength="109.3828" x="2166.38" y="1007.1777">Content creation,</text><text fill="#000000" font-family="sans-serif" font-size="13" lengthAdjust="spacing" textLength="110.5952" x="2166.38" y="1022.4883">Channel strategy,</text><text fill="#000000" font-family="sans-serif" font-size="13" lengthAdjust="spacing" textLength="120.231" x="2166.38" y="1037.7988">Consistent delivery</text></g><g class="entity" data-entity="GMN68" data-source-line="119" data-uid="ent0069" id="entity_GMN68"><path d="M1493.44,554.2483 L1493.44,630.801 A5,5 0 0 0 1498.44,635.801 L1649.5645,635.801 A5,5 0 0 0 1654.5645,630.801 L1654.5645,559.2483 L1644.5645,549.2483 L1498.44,549.2483 A5,5 0 0 0 1493.44,554.2483" fill="#FEFFDD" style="stroke:#181818;stroke-width:0.5;"/><path d="M1644.5645,549.2483 L1644.5645,556.7483 A2.5,2.5 0 0 0 1647.0645,559.2483 L1654.5645,559.2483 L1644.5645,549.2483" fill="#FEFFDD" style="stroke:#181818;stroke-width:1;"/><text fill="#000000" font-family="sans-serif" font-size="13" font-weight="bold" lengthAdjust="spacing" textLength="140.1245" x="1499.44" y="566.8166">Customer Perception</text><text fill="#000000" font-family="sans-serif" font-size="13" lengthAdjust="spacing" textLength="93.5581" x="1499.44" y="582.1272">What they feel:</text><text fill="#000000" font-family="sans-serif" font-size="13" lengthAdjust="spacing" textLength="122.6812" x="1499.44" y="597.4377">Touchpoint quality,</text><text fill="#000000" font-family="sans-serif" font-size="13" lengthAdjust="spacing" textLength="119.647" x="1499.44" y="612.7483">Internal alignment,</text><text fill="#000000" font-family="sans-serif" font-size="13" lengthAdjust="spacing" textLength="128.7939" x="1499.44" y="628.0588">Community building</text></g><!--link Logo to Web--><g class="link" data-entity-1="Logo" data-entity-2="Web" data-source-line="64" data-uid="lnk37" id="link_Logo_Web"><path d="M955.36,246.7683 C962.71,255.4383 971.86,264.3783 982,270.2683 C1297.04,453.0683 1451.73,294.4683 1782,448.0383 C2054.22,574.6083 2185.86,588.7083 2319,857.7783 C2362.16,944.9983 2372.18,995.2483 2319,1076.7483 C2271.47,1149.5983 2173.4586,1176.5931 2110.1986,1187.1231" fill="none" id="Logo-to-Web" style="stroke:#181818;stroke-width:1;"/><polygon fill="#181818" points="2104.28,1188.1083,2113.8146,1190.5762,2109.2121,1187.2873,2112.5011,1182.6848,2104.28,1188.1083" style="stroke:#181818;stroke-width:1;"/><text fill="#000000" font-family="sans-serif" font-size="13" lengthAdjust="spacing" textLength="61.8896" x="2202.93" y="679.3666">applies to</text></g><!--link Color to Web--><g class="link" data-entity-1="Color" data-entity-2="Web" data-source-line="65" data-uid="lnk38" id="link_Color_Web"><path d="M1255.9,246.5283 C1268.98,255.8583 1284.9,265.3183 1301,270.2683 C1362.13,289.0783 2394.75,264.5383 2452,293.0583 C2488.69,311.3283 2509,324.5583 2509,365.5483 C2509,365.5483 2509,365.5483 2509,1003.2683 C2509,1044.5983 2485.53,1052.5683 2452,1076.7483 C2344.43,1154.3383 2191.8643,1180.3948 2110.4543,1189.3148" fill="none" id="Color-to-Web" style="stroke:#181818;stroke-width:1;"/><polygon fill="#181818" points="2104.49,1189.9683,2113.8721,1192.9642,2109.4603,1189.4237,2113.0008,1185.0118,2104.49,1189.9683" style="stroke:#181818;stroke-width:1;"/><text fill="#000000" font-family="sans-serif" font-size="13" lengthAdjust="spacing" textLength="45.8999" x="2510" y="679.3666">defines</text></g><!--link Typo to Web--><g class="link" data-entity-1="Typo" data-entity-2="Web" data-source-line="66" data-uid="lnk39" id="link_Typo_Web"><path d="M1418.84,246.5383 C1435.85,255.8783 1456.21,265.3283 1476,270.2683 C1590.19,298.7683 2428.84,242.2483 2535,293.0583 C2572.98,311.2383 2596,323.4383 2596,365.5483 C2596,365.5483 2596,365.5483 2596,1003.2683 C2596,1054.7483 2577.42,1072.5683 2535,1101.7483 C2465.37,1149.6683 2220.4917,1178.2058 2110.3917,1188.9458" fill="none" id="Typo-to-Web" style="stroke:#181818;stroke-width:1;"/><polygon fill="#181818" points="2104.42,1189.5283,2113.7658,1192.6356,2109.3964,1189.0428,2112.9891,1184.6734,2104.42,1189.5283" style="stroke:#181818;stroke-width:1;"/><text fill="#000000" font-family="sans-serif" font-size="13" lengthAdjust="spacing" textLength="35.9087" x="2597" y="679.3666">styles</text></g><!--link Image to Social--><g class="link" data-entity-1="Image" data-entity-2="Social" data-source-line="67" data-uid="lnk40" id="link_Image_Social"><path d="M1099.08,246.5483 C1113.41,255.8783 1130.74,265.3383 1148,270.2683 C1276.33,306.9383 2225.41,242.6683 2349,293.0583 C2392.52,310.7983 2426,318.5483 2426,365.5483 C2426,365.5483 2426,365.5483 2426,842.2783 C2426,956.8283 2412.11,1010.0283 2319,1076.7483 C2274.16,1108.8883 2126.92,1096.5083 2072,1101.7483 C2052.23,1103.6383 2001.14,1101.6683 1983,1109.7483 C1954.05,1122.6483 1932.2048,1143.9988 1915.5648,1163.7588" fill="none" id="Image-to-Social" style="stroke:#181818;stroke-width:1;"/><polygon fill="#181818" points="1911.7,1168.3483,1920.5569,1164.0406,1914.9207,1164.5237,1914.4376,1158.8875,1911.7,1168.3483" style="stroke:#181818;stroke-width:1;"/><text fill="#000000" font-family="sans-serif" font-size="13" lengthAdjust="spacing" textLength="41.9834" x="2427" y="679.3666">guides</text></g><!--link Name to Tag--><g class="link" data-entity-1="Name" data-entity-2="Tag" data-source-line="70" data-uid="lnk41" id="link_Name_Tag"><path d="M1233,802.9783 C1233,846.0683 1233,926.4083 1233,969.5283" fill="none" id="Name-to-Tag" style="stroke:#181818;stroke-width:1;"/><polygon fill="#181818" points="1233,975.5283,1237,966.5283,1233,970.5283,1229,966.5283,1233,975.5283" style="stroke:#181818;stroke-width:1;"/><text fill="#000000" font-family="sans-serif" font-size="13" lengthAdjust="spacing" textLength="55.853" x="1234" y="846.3466">supports</text></g><!--link Voice to Copy--><g class="link" data-entity-1="Voice" data-entity-2="Copy" data-source-line="71" data-uid="lnk42" id="link_Voice_Copy"><path d="M1147.1,797.9683 C1152.78,799.6983 1158.48,801.3283 1164,802.7783 C1290.49,835.8583 1335.73,799.9583 1453,857.7783 C1511.43,886.5783 1560.9039,937.9639 1589.1039,970.8439" fill="none" id="Voice-to-Copy" style="stroke:#181818;stroke-width:1;"/><polygon fill="#181818" points="1593.01,975.3983,1590.1871,965.9627,1589.7549,971.603,1584.1146,971.1708,1593.01,975.3983" style="stroke:#181818;stroke-width:1;"/><text fill="#000000" font-family="sans-serif" font-size="13" lengthAdjust="spacing" textLength="41.9834" x="1433.64" y="846.3466">guides</text></g><!--link Message to Content--><g class="link" data-entity-1="Message" data-entity-2="Content" data-source-line="72" data-uid="lnk43" id="link_Message_Content"><path d="M1437.26,778.3183 C1507.63,782.3783 1625.47,798.4083 1705,857.7783 C1745.13,887.7383 1767.4475,937.3323 1778.9575,969.8423" fill="none" id="Message-to-Content" style="stroke:#181818;stroke-width:1;"/><polygon fill="#181818" points="1780.96,975.4983,1781.7269,965.6793,1779.2913,970.785,1774.1856,968.3493,1780.96,975.4983" style="stroke:#181818;stroke-width:1;"/><text fill="#000000" font-family="sans-serif" font-size="13" lengthAdjust="spacing" textLength="48.6738" x="1691.21" y="846.3466">informs</text></g><!--link Mission to Vision--><g class="link" data-entity-1="Mission" data-entity-2="Vision" data-source-line="75" data-uid="lnk44" id="link_Mission_Vision"><path d="M809,246.6583 C809,273.0083 809,307.6183 809,333.8883" fill="none" id="Mission-to-Vision" style="stroke:#181818;stroke-width:1;"/><polygon fill="#181818" points="809,339.8883,813,330.8883,809,334.8883,805,330.8883,809,339.8883" style="stroke:#181818;stroke-width:1;"/><text fill="#000000" font-family="sans-serif" font-size="13" lengthAdjust="spacing" textLength="37.8574" x="810" y="306.6266">drives</text></g><!--link Vision to Values--><g class="link" data-entity-1="Vision" data-entity-2="Values" data-source-line="76" data-uid="lnk45" id="link_Vision_Values"><path d="M808.2,393.2383 C806.85,436.3283 804.3378,516.6712 802.9878,559.7912" fill="none" id="Vision-to-Values" style="stroke:#181818;stroke-width:1;"/><polygon fill="#181818" points="802.8,565.7883,807.0797,556.9179,802.9565,560.7907,799.0836,556.6675,802.8,565.7883" style="stroke:#181818;stroke-width:1;"/><text fill="#000000" font-family="sans-serif" font-size="13" lengthAdjust="spacing" textLength="61.3564" x="808.12" y="436.6066">embodies</text></g><!--link Values to Service--><g class="link" data-entity-1="Values" data-entity-2="Service" data-source-line="77" data-uid="lnk46" id="link_Values_Service"><path d="M749.66,592.6783 C645.85,593.0583 408.9,604.2383 235,690.7983 C206.99,704.7383 185.5542,725.7022 168.9642,745.0622" fill="none" id="Values-to-Service" style="stroke:#181818;stroke-width:1;"/><polygon fill="#181818" points="165.06,749.6183,173.9536,745.387,168.3135,745.8216,167.8789,740.1814,165.06,749.6183" style="stroke:#181818;stroke-width:1;"/><text fill="#000000" font-family="sans-serif" font-size="13" lengthAdjust="spacing" textLength="46.4902" x="292.8" y="679.3666">reflects</text></g><!--link Copy to Web--><g class="link" data-entity-1="Copy" data-entity-2="Web" data-source-line="80" data-uid="lnk47" id="link_Copy_Web"><path d="M1637.06,1029.1483 C1653.97,1046.1383 1678.53,1066.9583 1705,1076.7483 C1733.67,1087.3583 1953.31,1069.8483 1980,1084.7483 C2012.38,1102.8283 2030.4938,1136.6965 2040.9938,1162.9765" fill="none" id="Copy-to-Web" style="stroke:#181818;stroke-width:1;"/><polygon fill="#181818" points="2043.22,1168.5483,2043.5953,1158.7066,2041.3649,1163.9052,2036.1663,1161.6748,2043.22,1168.5483" style="stroke:#181818;stroke-width:1;"/><text fill="#000000" font-family="sans-serif" font-size="13" lengthAdjust="spacing" textLength="62.0864" x="2000.64" y="1098.3166">populates</text></g><!--link Story to Social--><g class="link" data-entity-1="Story" data-entity-2="Social" data-source-line="81" data-uid="lnk48" id="link_Story_Social"><path d="M1948.95,1029.0383 C1940.23,1044.7583 1929.51,1065.4783 1922,1084.7483 C1911.12,1112.6683 1903.9162,1140.179 1898.7762,1162.679" fill="none" id="Story-to-Social" style="stroke:#181818;stroke-width:1;"/><polygon fill="#181818" points="1897.44,1168.5283,1903.3439,1160.6451,1898.5535,1163.6539,1895.5448,1158.8635,1897.44,1168.5283" style="stroke:#181818;stroke-width:1;"/><text fill="#000000" font-family="sans-serif" font-size="13" lengthAdjust="spacing" textLength="52.5713" x="1923" y="1098.3166">engages</text></g><!--link Content to Print--><g class="link" data-entity-1="Content" data-entity-2="Print" data-source-line="82" data-uid="lnk49" id="link_Content_Print"><path d="M1780.37,1029.0183 C1768.15,1065.4683 1747.8567,1126.0393 1735.6067,1162.5893" fill="none" id="Content-to-Print" style="stroke:#181818;stroke-width:1;"/><polygon fill="#181818" points="1733.7,1168.2783,1740.3527,1161.0159,1735.2889,1163.5375,1732.7674,1158.4737,1733.7,1168.2783" style="stroke:#181818;stroke-width:1;"/><text fill="#000000" font-family="sans-serif" font-size="13" lengthAdjust="spacing" textLength="45.1318" x="1761.83" y="1098.3166">creates</text></g><!--link Product to Service--><g class="link" data-entity-1="Product" data-entity-2="Service" data-source-line="85" data-uid="lnk50" id="link_Product_Service"><path d="M151.01,619.1783 C149.68,653.7183 147.562,708.8428 146.222,743.4728" fill="none" id="Product-to-Service" style="stroke:#181818;stroke-width:1;"/><polygon fill="#181818" points="145.99,749.4683,150.335,740.6297,146.1833,744.472,142.341,740.3203,145.99,749.4683" style="stroke:#181818;stroke-width:1;"/><text fill="#000000" font-family="sans-serif" font-size="13" lengthAdjust="spacing" textLength="48.8579" x="150.13" y="679.3666">delivers</text></g><!--link Service to Support--><g class="link" data-entity-1="Service" data-entity-2="Support" data-source-line="86" data-uid="lnk51" id="link_Service_Support"><path d="M144.08,802.9783 C142.54,846.0683 139.6741,926.4121 138.1341,969.5321" fill="none" id="Service-to-Support" style="stroke:#181818;stroke-width:1;"/><polygon fill="#181818" points="137.92,975.5283,142.2387,966.6768,138.0985,970.5315,134.2438,966.3912,137.92,975.5283" style="stroke:#181818;stroke-width:1;"/><text fill="#000000" font-family="sans-serif" font-size="13" lengthAdjust="spacing" textLength="61.6357" x="143.85" y="846.3466">maintains</text></g><!--link Support to Community--><g class="link" data-entity-1="Support" data-entity-2="Community" data-source-line="87" data-uid="lnk52" id="link_Support_Community"><path d="M137.81,1029.0183 C138.95,1065.4683 140.853,1125.7312 141.993,1162.2812" fill="none" id="Support-to-Community" style="stroke:#181818;stroke-width:1;"/><polygon fill="#181818" points="142.18,1168.2783,145.8975,1159.158,142.0241,1163.2807,137.9014,1159.4074,142.18,1168.2783" style="stroke:#181818;stroke-width:1;"/><text fill="#000000" font-family="sans-serif" font-size="13" lengthAdjust="spacing" textLength="38.5747" x="141" y="1098.3166">builds</text></g><!--link Training to Champions--><g class="link" data-entity-1="Training" data-entity-2="Champions" data-source-line="90" data-uid="lnk53" id="link_Training_Champions"><path d="M510.63,802.9783 C473.12,846.0683 401.8897,927.883 364.3497,971.003" fill="none" id="Training-to-Champions" style="stroke:#181818;stroke-width:1;"/><polygon fill="#181818" points="360.41,975.5283,369.3365,971.3668,363.6931,971.7572,363.3027,966.1138,360.41,975.5283" style="stroke:#181818;stroke-width:1;"/><text fill="#000000" font-family="sans-serif" font-size="13" lengthAdjust="spacing" textLength="55.9482" x="481.7" y="846.3466">develops</text></g><!--link Internal to Champions--><g class="link" data-entity-1="Internal" data-entity-2="Champions" data-source-line="91" data-uid="lnk54" id="link_Internal_Champions"><path d="M338,802.9783 C338,846.0683 338,926.4083 338,969.5283" fill="none" id="Internal-to-Champions" style="stroke:#181818;stroke-width:1;"/><polygon fill="#181818" points="338,975.5283,342,966.5283,338,970.5283,334,966.5283,338,975.5283" style="stroke:#181818;stroke-width:1;"/><text fill="#000000" font-family="sans-serif" font-size="13" lengthAdjust="spacing" textLength="91.3809" x="339" y="846.3466">communicates</text></g><!--link Champions to Community--><g class="link" data-entity-1="Champions" data-entity-2="Community" data-source-line="92" data-uid="lnk55" id="link_Champions_Community"><path d="M311.7,1029.0183 C274.48,1065.4683 211.1172,1127.5307 173.7872,1164.0807" fill="none" id="Champions-to-Community" style="stroke:#181818;stroke-width:1;"/><polygon fill="#181818" points="169.5,1168.2783,178.7292,1164.84,173.0727,1164.7803,173.1324,1159.1237,169.5,1168.2783" style="stroke:#181818;stroke-width:1;"/><text fill="#000000" font-family="sans-serif" font-size="13" lengthAdjust="spacing" textLength="56.1704" x="253.18" y="1098.3166">connects</text></g><!--link Values to Voice--><g class="link" data-entity-1="Values" data-entity-2="Voice" data-source-line="95" data-uid="lnk56" id="link_Values_Voice"><path d="M842.67,619.3683 C897.11,653.9683 988.036,711.7603 1042.406,746.3103" fill="none" id="Values-to-Voice" style="stroke:#181818;stroke-width:1;"/><polygon fill="#181818" points="1047.47,749.5283,1042.0193,741.3253,1043.25,746.8466,1037.7286,748.0773,1047.47,749.5283" style="stroke:#181818;stroke-width:1;"/><text fill="#000000" font-family="sans-serif" font-size="13" lengthAdjust="spacing" textLength="48.6738" x="937.42" y="679.3666">informs</text></g><!--link Mission to Message--><g class="link" data-entity-1="Mission" data-entity-2="Message" data-source-line="96" data-uid="lnk57" id="link_Mission_Message"><path d="M837.52,246.5483 C914.37,316.2783 1131.43,515.2183 1302,690.7983 C1320.56,709.8983 1336.7231,727.8479 1351.5931,744.7979" fill="none" id="Mission-to-Message" style="stroke:#181818;stroke-width:1;"/><polygon fill="#181818" points="1355.55,749.3083,1352.6216,739.9049,1352.2526,745.5497,1346.6078,745.1807,1355.55,749.3083" style="stroke:#181818;stroke-width:1;"/><text fill="#000000" font-family="sans-serif" font-size="13" lengthAdjust="spacing" textLength="45.8999" x="1043.23" y="436.6066">defines</text></g><!--link Vision to Story--><g class="link" data-entity-1="Vision" data-entity-2="Story" data-source-line="97" data-uid="lnk58" id="link_Vision_Story"><path d="M847.48,368.9983 C1005.91,375.2383 1602.64,401.6883 1672,448.0383 C1867.72,578.8183 1940.1737,878.8427 1958.1537,969.5727" fill="none" id="Vision-to-Story" style="stroke:#181818;stroke-width:1;"/><polygon fill="#181818" points="1959.32,975.4583,1961.4942,965.8524,1958.348,970.5537,1953.6468,967.4075,1959.32,975.4583" style="stroke:#181818;stroke-width:1;"/><text fill="#000000" font-family="sans-serif" font-size="13" lengthAdjust="spacing" textLength="49.5815" x="1862.11" y="679.3666">inspires</text></g><!--link Logo to Package--><g class="link" data-entity-1="Logo" data-entity-2="Package" data-source-line="98" data-uid="lnk59" id="link_Logo_Package"><path d="M909.81,245.4183 C898.29,254.5883 884.25,264.2283 870,270.2683 C813.58,294.1983 783.43,256.8283 734,293.0583 C704.82,314.4383 697,329.3783 697,365.5483 C697,365.5483 697,365.5483 697,1003.2683 C697,1177.6983 1353.5301,1193.2552 1534.6901,1194.2552" fill="none" id="Logo-to-Package" style="stroke:#181818;stroke-width:1;"/><polygon fill="#181818" points="1540.69,1194.2883,1531.7122,1190.2387,1535.6901,1194.2607,1531.6681,1198.2385,1540.69,1194.2883" style="stroke:#181818;stroke-width:1;"/><text fill="#000000" font-family="sans-serif" font-size="13" lengthAdjust="spacing" textLength="70.0781" x="698" y="679.3666">appears on</text></g><!--link Voice to Social--><g class="link" data-entity-1="Voice" data-entity-2="Social" data-source-line="99" data-uid="lnk60" id="link_Voice_Social"><path d="M1082,802.9383 C1069.99,861.4783 1050.39,1005.3883 1128,1076.7483 C1141.78,1089.4183 1783.75,1102.4883 1801,1109.7483 C1830.4,1122.1383 1852.3923,1143.8178 1868.9523,1163.8078" fill="none" id="Voice-to-Social" style="stroke:#181818;stroke-width:1;"/><polygon fill="#181818" points="1872.78,1168.4283,1870.1188,1158.9458,1869.5903,1164.5779,1863.9582,1164.0493,1872.78,1168.4283" style="stroke:#181818;stroke-width:1;"/><text fill="#000000" font-family="sans-serif" font-size="13" lengthAdjust="spacing" textLength="41.9834" x="1129" y="1007.3366">guides</text></g><!--link Copy to Print--><g class="link" data-entity-1="Copy" data-entity-2="Print" data-source-line="100" data-uid="lnk61" id="link_Copy_Print"><path d="M1628.97,1029.0183 C1650.16,1065.4683 1685.6443,1126.5412 1706.8943,1163.0912" fill="none" id="Copy-to-Print" style="stroke:#181818;stroke-width:1;"/><polygon fill="#181818" points="1709.91,1168.2783,1708.8444,1158.4872,1707.3969,1163.9557,1701.9284,1162.5082,1709.91,1168.2783" style="stroke:#181818;stroke-width:1;"/><text fill="#000000" font-family="sans-serif" font-size="13" lengthAdjust="spacing" textLength="65.8506" x="1670.5" y="1098.3166">appears in</text></g><!--link Logo to GMN62--><g class="link" data-entity-1="Logo" data-entity-2="GMN62" data-source-line="103" data-uid="lnk64" id="link_Logo_GMN62"><path d="M936.9,192.8783 C938.45,152.5583 948.46,79.1783 999.5,60.2883 C1044.94,43.4883 1390.06,43.4883 1435.5,60.2883 C1488.68,79.9683 1526.31,136.1083 1547.32,176.2083" fill="none" id="Logo-GMN62" style="stroke:#181818;stroke-width:1;stroke-dasharray:7,7;"/></g><!--link Copy to GMN65--><g class="link" data-entity-1="Copy" data-entity-2="GMN65" data-source-line="111" data-uid="lnk67" id="link_Copy_GMN65"><path d="M1621.73,975.5383 C1634.93,935.4883 1666.02,861.2783 1722.5,830.2783 C1783.47,796.8083 1970.42,805.7283 2035.5,830.2783 C2103.17,855.8083 2162.62,916.6083 2197.69,958.6183" fill="none" id="Copy-GMN65" style="stroke:#181818;stroke-width:1;stroke-dasharray:7,7;"/></g><!--link Product to GMN68--><g class="link" data-entity-1="Product" data-entity-2="GMN68" data-source-line="119" data-uid="lnk70" id="link_Product_GMN68"><path d="M188.24,576.6583 C315.34,523.0183 752.63,355.3483 1113.5,420.5383 C1252.07,445.5683 1403.32,509.7783 1493.33,552.2683" fill="none" id="Product-GMN68" style="stroke:#181818;stroke-width:1;stroke-dasharray:7,7;"/></g><!--SRC=[VLPRRzH657xthnW5gPS892Yb9Ncer6nsLLHIHIA25ruSxyGxYjVZpjY0LI4HkmqWIakLagTII20a982e0D6e47wCkxayzI_qp9cPNQyD98etE-TyvpRVESSnYmDAYdovo1yL-VCYlxx_S67lnRrYuUdk-es3A_SSHywpC7A5soMphZVl2vw4xGOFk227MatrMz90eST5I0KvThGaY03g-lHCd88xGRtO3Vs0Eeuv9oCJmWtRv5IRXZ6Bq_FX9-MOYcoro1uK-LNykbXaz_Npqn5og7cyzLbhalpWE8JqhPrbCd63ONDBHVPtaQyfM_dMXonEJ4msMnDWaS1FFrOoSfhx_7nOv4-AxCK8SILH1rKbNPbfDw1nJ44xsy8iNXVvRqN-kCZp8h-6O5IiecVIYFl2ZJgfWhx54EyKsJEqSHlYGwZIgY9FTI5naHAii083SaNvXQIpRMjh2_6e2mOk3zUCYjdXckrlNDdV_FD3fMgSQ7pT7AkNIj_cTsvNXLAwoDwjcnY1ajHoT_s0XTGaZYahjyzrogvVrJ_BcKV9HsI68oZ_Gwbds_-zNeGIOyKr5FMgu6zfIgQeb92vL1wV8615tK_sZouRWerEhLWwmRDka2Zy45d_tLdfNNc0rJdP_ABnZkfCCIaP3rNGTz7Zgo9Vj-4QOIrRPY6QntrzBQZJKD1-U4Ns75b_gyWtLGVahpKInPZQvLedDYz5WfemXzBRNzdO-tL7fTTgjSOQdrSwhy7360YaGE1LCqOzVpI84sEJzO8qU9IISuB5BFHrkFdlU26Q0ffpaCCpqpbHMhLm9kOYZMaG60lRbWER-5p4V_eMKBiU14OEGk76r4zD88CCTgyztBkzPa90tHej6Xqt36cWAR5Gv13sJUWwdNkpCN6ydlivEYkP7XKFYsnTbJfxYMdhEG7oMhBSOz2fKxJDN8LxWuHzXUwsaCLNLSMoLPqiQbTjJ0i6kKv1fWAa473lvhFUjLTxrnyX2CKr3AQfAwp66J3thrAlQ35zFw705GqzMksNDqi76qiuoezDD9jVLWcLo9XtOP_CyCJhH1pYKkKzM5dlFLtT_MLjBzl6NckE7PyyMI_ljE3jn0C-xjz_qrjQCCdXMQsiL5nW7jx4IsGDTDgsBg6Mr019574H6y0TnEXBCv8wnRhT9CJXYjowYzruGpFS4CjerAXr2XWdGhZsHXB4YL1Lx2t-T91lx2vVxVsyZ1Gx2QlhQBq6pMuKy9HICYDS5kBzzNQMTjUUz9PMi4yUO-WtIXrYDMjhfXy510htiFTW1w8OIiPmeZpJBEhTQmAQfXl1e973ky8s40w3RDFQwcjRddrCAjkUmClBmVBglsypHsreSkJ8LwgBo3XneoXWL9AOEtfF3qHjEWVBHpfgjvQEfLgdqi6DYSUczyQ9dx0sI9JxuSLPSg_M7A9WVIbZcXNIqQjB2N3ozOsPRMCaUXoD4nREST55L-MrK_9ZTWRYz3vG6Gbs0MoQxoZIk752kxEypPHGds1YckCW5NGkW3j2XpQAWI-CU52WY4T905D4EZXKXsj4GryjMCTQKK8zUCQ99oZ2b1FRueCPKN9ekhKIP9i6a9u0j-O8nRh08Eu2VMFu0xavqpKrtGKQimaBskY-sbabtxODDDeo3zrVe06FW1aMNDNmj2yFanm8gc5u71Q6BRRWKXwn7Iyer5LXEYmQkYdDdW4lohTl6JGWTEd-zGqfe8mORFT1UvZHhLk4ka8IUAKOiBHA-Zu7x6LQ50iT9-Gn1C_yJapud7r77Xt5DnBR8wEZS3Qf8oGNEvnSfCGLT1nEptNSM7qDE9yd0PkdX-7m6tvHdKdmCd-uf2HZrGzG1eV2f_9SzMzU5aP7cvUebwXwajDkIWL6OCrsu3E9b7VBL6GdA2jdPgc3C_rYS5ZhIIPHrJ0nVMy8WtK3LR1KdwR2ev5oWP5WGd47tahdA0rK98DrHxw7wGP5KtxxT8CJF-o2VnsD9HIoMitjVZ3_0m00]--></g></svg>