<svg xmlns="http://www.w3.org/2000/svg" xmlns:xlink="http://www.w3.org/1999/xlink" contentStyleType="text/css" data-diagram-type="DESCRIPTION" height="1047px" preserveAspectRatio="none" style="width:1331px;height:1047px;background:#FEFEFE;" version="1.1" viewBox="0 0 1331 1047" width="1331px" zoomAndPan="magnify"><title>EStack-Brand-Builder &#12471;&#12473;&#12486;&#12512;&#12450;&#12540;&#12461;&#12486;&#12463;&#12481;&#12515;</title><defs><filter height="300%" id="fdoho22yiflnl" width="300%" x="-1" y="-1"><feGaussianBlur result="blurOut" stdDeviation="2"/><feColorMatrix in="blurOut" result="blurOut2" type="matrix" values="0 0 0 0 0 0 0 0 0 0 0 0 0 0 0 0 0 0 .4 0"/><feOffset dx="4" dy="4" in="blurOut2" result="blurOut3"/><feBlend in="SourceGraphic" in2="blurOut3" mode="normal"/></filter></defs><g><rect fill="#FEFEFE" height="1047" style="stroke:none;stroke-width:1;" width="1331" x="0" y="0"/><g class="title" data-source-line="2"><text fill="#000000" font-family="sans-serif" font-size="14" font-weight="bold" lengthAdjust="spacing" textLength="315.9639" x="500.6413" y="23.5352">EStack-Brand-Builder &#12471;&#12473;&#12486;&#12512;&#12450;&#12540;&#12461;&#12486;&#12463;&#12481;&#12515;</text></g><!--cluster Core Agents--><g class="cluster" data-entity="Core Agents" data-source-line="8" data-uid="ent0002" id="cluster_Core Agents"><path d="M105,43.4883 L189.6279,43.4883 A7.5,7.5 0 0 1 194.6279,48.4883 L201.6279,65.9766 L281,65.9766 A5,5 0 0 1 286,70.9766 L286,617.8183 A5,5 0 0 1 281,622.8183 L105,622.8183 A5,5 0 0 1 100,617.8183 L100,48.4883 A5,5 0 0 1 105,43.4883" fill="#E3F2FD" filter="url(#fdoho22yiflnl)" style="stroke:#000000;stroke-width:1.5;"/><line style="stroke:#000000;stroke-width:1.5;" x1="100" x2="201.6279" y1="65.9766" y2="65.9766"/><text fill="#000000" font-family="sans-serif" font-size="14" font-weight="bold" lengthAdjust="spacing" textLength="88.6279" x="104" y="59.0234">Core Agents</text></g><!--cluster Quality Agents--><g class="cluster" data-entity="Quality Agents" data-source-line="15" data-uid="ent0007" id="cluster_Quality Agents"><path d="M379,506.3283 L482.0439,506.3283 A7.5,7.5 0 0 1 487.0439,511.3283 L494.0439,528.8166 L579,528.8166 A5,5 0 0 1 584,533.8166 L584,617.8183 A5,5 0 0 1 579,622.8183 L379,622.8183 A5,5 0 0 1 374,617.8183 L374,511.3283 A5,5 0 0 1 379,506.3283" fill="#E8F5E9" filter="url(#fdoho22yiflnl)" style="stroke:#000000;stroke-width:1.5;"/><line style="stroke:#000000;stroke-width:1.5;" x1="374" x2="494.0439" y1="528.8166" y2="528.8166"/><text fill="#000000" font-family="sans-serif" font-size="14" font-weight="bold" lengthAdjust="spacing" textLength="107.0439" x="378" y="521.8634">Quality Agents</text></g><!--cluster Support Agents--><g class="cluster" data-entity="Support Agents" data-source-line="19" data-uid="ent0009" id="cluster_Support Agents"><path d="M714,330.4683 L821.8701,330.4683 A7.5,7.5 0 0 1 826.8701,335.4683 L833.8701,352.9566 L1252,352.9566 A5,5 0 0 1 1257,357.9566 L1257,617.8183 A5,5 0 0 1 1252,622.8183 L714,622.8183 A5,5 0 0 1 709,617.8183 L709,335.4683 A5,5 0 0 1 714,330.4683" fill="#FFF3E0" filter="url(#fdoho22yiflnl)" style="stroke:#000000;stroke-width:1.5;"/><line style="stroke:#000000;stroke-width:1.5;" x1="709" x2="833.8701" y1="352.9566" y2="352.9566"/><text fill="#000000" font-family="sans-serif" font-size="14" font-weight="bold" lengthAdjust="spacing" textLength="111.8701" x="713" y="346.0034">Support Agents</text></g><!--cluster External Services--><g class="cluster" data-entity="External Services" data-source-line="27" data-uid="ent0015" id="cluster_External Services"><path d="M11,671.8183 L129.5068,671.8183 A7.5,7.5 0 0 1 134.5068,676.8183 L141.5068,694.3066 L971,694.3066 A5,5 0 0 1 976,699.3066 L976,912.3083 A5,5 0 0 1 971,917.3083 L11,917.3083 A5,5 0 0 1 6,912.3083 L6,676.8183 A5,5 0 0 1 11,671.8183" fill="#F3E5F5" filter="url(#fdoho22yiflnl)" style="stroke:#000000;stroke-width:1.5;"/><line style="stroke:#000000;stroke-width:1.5;" x1="6" x2="141.5068" y1="694.3066" y2="694.3066"/><text fill="#000000" font-family="sans-serif" font-size="14" font-weight="bold" lengthAdjust="spacing" textLength="122.5068" x="10" y="687.3534">External Services</text></g><!--cluster Chroma--><g class="cluster" data-entity="Chroma" data-source-line="28" data-uid="ent0016" id="cluster_Chroma"><path d="M38,732.8183 C38,722.8183 133.5,722.8183 133.5,722.8183 C133.5,722.8183 229,722.8183 229,732.8183 L229,875.3083 C229,885.3083 133.5,885.3083 133.5,885.3083 C133.5,885.3083 38,885.3083 38,875.3083 L38,732.8183" fill="none" filter="url(#fdoho22yiflnl)" style="stroke:#181818;stroke-width:1;"/><path d="M38,732.8183 C38,742.8183 133.5,742.8183 133.5,742.8183 C133.5,742.8183 229,742.8183 229,732.8183" fill="none" style="stroke:#181818;stroke-width:1;"/><text fill="#000000" font-family="sans-serif" font-size="14" font-weight="bold" lengthAdjust="spacing" textLength="76.2002" x="95.3999" y="758.3534">ChromaDB</text></g><!--cluster Gemini--><g class="cluster" data-entity="Gemini" data-source-line="31" data-uid="ent0018" id="cluster_Gemini"><path d="M286.2946,762.8795 C292.4467,754.0525 302.4598,752.0659 307.6811,763.8455 C316.7288,749.0865 325.8632,750.3833 334.9362,763.821 C338.6644,753.0151 348.6214,750.4603 355.4718,760.787 C364.5285,750.5975 372.9771,749.6179 379.8719,763.0227 C384.9554,749.9855 397.366,746.8888 405.7117,759.7704 C412.4624,750.0207 419.7313,750.0672 425.6707,760.57 C432.8045,748.5005 445.1107,747.7255 452.4323,760.3666 C459.1292,749.6087 470.2104,749.6432 474.7413,762.4198 C482.5568,751.8253 490.6416,753.0421 497.4302,763.5251 C504.539,750.1893 513.676,750.9302 521.9512,762.3707 C528.6059,753.0163 535.5858,751.7224 543.3346,761.1233 C552.7633,749.9612 562.3703,750.2342 568.1597,764.6549 C572.8765,754.0307 582.8644,750.364 590.5805,761.575 C603.6936,750.0498 613.4798,752.0929 621,767.8183 C624.6074,767.1322 625.6691,768.8881 625.4175,772.1434 C635.3352,776.8078 637.6725,786.6803 628.8681,794.265 C644.3985,800.134 643.892,808.5269 634.1809,819.6737 C644.0088,829.1476 643.4797,839.5085 629.7015,844.7689 C638.5325,860.1827 634.9423,876.2612 614,877.3083 C616.6707,877.8024 617.3512,879.3893 615.9926,881.7082 C608.1529,894.6612 599.3022,893.9838 591.8553,881.3378 C586.1178,891.2068 576.7574,892.5416 570.7663,881.5947 C563.0799,892.5821 550.0005,893.2655 543.8536,879.8939 C539.6111,892.6835 532.9699,894.2409 523.4619,884.7029 C515.1472,896.8142 507.5987,895.7887 500.3887,883.6517 C493.9778,897.8353 481.9167,896.147 473.4879,885.8709 C464.2261,894.7001 457.2389,894.2566 450.5469,882.9439 C444.9604,892.6626 436.1197,894.5748 429.1202,884.4712 C420.8408,893.6254 411.6163,892.1839 405.6212,881.7331 C398.1448,895.388 387.7697,895.0322 379.5844,882.4362 C372.9083,893.3089 364.357,890.5316 358.7469,881.3298 C351.6703,894.2034 343.8765,895.4528 334.7344,883.3126 C326.165,894.2382 314.2772,890.1922 309.7054,878.8245 C297.5224,890.0537 282.2322,885.7724 277,870.3083 C278.0854,869.7021 278.9764,869.7223 279.1889,871.2175 C265.5268,867.0605 264.7323,856.3311 275.3006,848.0988 C262.6332,841.6938 261.217,833.2859 271.3018,823.2235 C260.5226,815.2457 261.7324,802.351 273.3631,796.0747 C261.0909,781.2671 266.5624,766.6624 284,760.8183 C285.7146,760.4643 286.5654,761.0231 286.2946,762.8795" fill="none" filter="url(#fdoho22yiflnl)" style="stroke:#181818;stroke-width:1;"/><text fill="#000000" font-family="sans-serif" font-size="14" font-weight="bold" lengthAdjust="spacing" textLength="78.668" x="409.666" y="779.3534">Gemini API</text></g><!--cluster GH--><g class="cluster" data-entity="GH" data-source-line="35" data-uid="ent0021" id="cluster_GH"><path d="M686.8319,763.2167 C692.0607,755.2659 697.9416,755.7742 703.7864,762.5054 C708.8145,753.6576 713.977,755.3251 719.7462,761.7299 C725.3542,754.1144 733.338,753.61 738.7595,761.9522 C743.1429,754.4111 750.5977,753.7254 756.2571,760.3794 C762.3045,753.3782 768.1667,754.6248 772.759,762.0446 C778.6974,753.5061 784.3686,751.2487 791.5981,760.692 C797.1096,753.8416 804.1865,755.6184 807.7819,762.8881 C811.7553,753.708 818.4347,752.6621 824.892,760.3719 C830.376,751.3164 840.3155,752.671 844.8767,761.4084 C849.6122,754.2162 857.4662,755.1135 861.0702,762.6522 C866.4572,754.6984 875.1762,754.6653 879.7245,763.5797 C883.5596,755.8977 891.8129,753.7534 897.1369,761.9465 C902.4113,754.6478 908.4689,754.4693 914.2001,761.3987 C922.8773,753.5055 933.1601,755.8886 936,767.8183 C936.838,766.9441 937.9772,767.2266 938.274,768.415 C950.6845,776.3959 948.1757,787.1032 937.0828,793.9894 C948.9903,801.0617 951.5274,812.8464 938.527,821.2387 C952.3618,828.1926 949.3647,840.2868 938.8055,847.4995 C949.8831,860.3252 947.3022,874.1469 929,877.3083 C930.6185,877.8876 931.1231,878.867 929.9275,880.3146 C924.0495,886.2977 918.3932,886.1027 913.8186,878.7412 C908.6821,889.4653 902.2092,887.4326 895.3004,880.6118 C890.9055,887.9556 885.5816,888.5556 879.3904,882.7923 C873.566,893.6321 867.0238,893.4819 859.6307,884.3438 C856.225,892.2178 848.7966,895.2005 843.0465,886.7213 C838.8175,895.5464 831.8216,894.107 826.7728,887.5909 C821.2804,896.6043 815.607,894.5994 809.8783,887.8441 C803.1364,898.9524 795.2484,895.8974 789.2307,887.0932 C784.3217,893.3628 777.5934,892.7362 774.3434,885.2922 C768.9801,892.4821 761.3118,891.5497 757.1703,883.8801 C750.3639,891.7206 742.3094,891.8203 737.8419,881.404 C732.4162,889.5213 724.4923,890.176 719.6439,880.8033 C714.4428,888.3998 706.5048,888.1714 701.9739,880.0498 C688.5795,889.9733 680.0925,886.7953 677,870.3083 C678.3828,868.857 679.4667,868.938 680.4278,870.7511 C670.7693,868.0223 668.7319,860.7218 675.5351,853.3613 C668.5857,850.0268 666.6275,845.5821 672.5817,839.4985 C661.3792,837.1086 660.7964,827.355 668.1362,820.6029 C660.4687,813.0021 662.1006,808.1692 671.6519,804.2762 C663.7954,796.9374 665.8157,790.5049 675.4471,787.0101 C666.8353,776.0907 668.626,763.9051 684,760.8183 C686.2054,760.0268 687.0057,761.1989 686.8319,763.2167" fill="none" filter="url(#fdoho22yiflnl)" style="stroke:#181818;stroke-width:1;"/><text fill="#000000" font-family="sans-serif" font-size="14" font-weight="bold" lengthAdjust="spacing" textLength="50.0596" x="781.4702" y="779.3534">GitHub</text></g><!--entity SA--><g class="entity" data-entity="SA" data-source-line="9" data-uid="ent0003" id="entity_SA"><rect fill="#F1F1F1" filter="url(#fdoho22yiflnl)" height="46.4883" rx="5" ry="5" style="stroke:#181818;stroke-width:0.5;" width="141.9307" x="128.03" y="97.4883"/><rect fill="#F1F1F1" height="10" style="stroke:#181818;stroke-width:0.5;" width="15" x="249.9607" y="102.4883"/><rect fill="#F1F1F1" height="2" style="stroke:#181818;stroke-width:0.5;" width="4" x="247.9607" y="104.4883"/><rect fill="#F1F1F1" height="2" style="stroke:#181818;stroke-width:0.5;" width="4" x="247.9607" y="108.4883"/><text fill="#000000" font-family="sans-serif" font-size="14" lengthAdjust="spacing" textLength="101.9307" x="143.03" y="131.0234">StructureAgent</text></g><!--entity EA--><g class="entity" data-entity="EA" data-source-line="10" data-uid="ent0004" id="entity_EA"><rect fill="#F1F1F1" filter="url(#fdoho22yiflnl)" height="46.4883" rx="5" ry="5" style="stroke:#181818;stroke-width:0.5;" width="154.2354" x="115.88" y="220.9783"/><rect fill="#F1F1F1" height="10" style="stroke:#181818;stroke-width:0.5;" width="15" x="250.1154" y="225.9783"/><rect fill="#F1F1F1" height="2" style="stroke:#181818;stroke-width:0.5;" width="4" x="248.1154" y="227.9783"/><rect fill="#F1F1F1" height="2" style="stroke:#181818;stroke-width:0.5;" width="4" x="248.1154" y="231.9783"/><text fill="#000000" font-family="sans-serif" font-size="14" lengthAdjust="spacing" textLength="114.2354" x="130.88" y="254.5134">ExpressionAgent</text></g><!--entity EvA--><g class="entity" data-entity="EvA" data-source-line="11" data-uid="ent0005" id="entity_EvA"><rect fill="#F1F1F1" filter="url(#fdoho22yiflnl)" height="46.4883" rx="5" ry="5" style="stroke:#181818;stroke-width:0.5;" width="149.7168" x="116.14" y="560.3283"/><rect fill="#F1F1F1" height="10" style="stroke:#181818;stroke-width:0.5;" width="15" x="245.8568" y="565.3283"/><rect fill="#F1F1F1" height="2" style="stroke:#181818;stroke-width:0.5;" width="4" x="243.8568" y="567.3283"/><rect fill="#F1F1F1" height="2" style="stroke:#181818;stroke-width:0.5;" width="4" x="243.8568" y="571.3283"/><text fill="#000000" font-family="sans-serif" font-size="14" lengthAdjust="spacing" textLength="109.7168" x="131.14" y="593.8634">EvaluationAgent</text></g><!--entity CA--><g class="entity" data-entity="CA" data-source-line="12" data-uid="ent0006" id="entity_CA"><rect fill="#F1F1F1" filter="url(#fdoho22yiflnl)" height="46.4883" rx="5" ry="5" style="stroke:#181818;stroke-width:0.5;" width="114.5254" x="129.74" y="384.4683"/><rect fill="#F1F1F1" height="10" style="stroke:#181818;stroke-width:0.5;" width="15" x="224.2654" y="389.4683"/><rect fill="#F1F1F1" height="2" style="stroke:#181818;stroke-width:0.5;" width="4" x="222.2654" y="391.4683"/><rect fill="#F1F1F1" height="2" style="stroke:#181818;stroke-width:0.5;" width="4" x="222.2654" y="395.4683"/><text fill="#000000" font-family="sans-serif" font-size="14" lengthAdjust="spacing" textLength="74.5254" x="144.74" y="418.0034">CopyAgent</text></g><!--entity QCA--><g class="entity" data-entity="QCA" data-source-line="16" data-uid="ent0008" id="entity_QCA"><rect fill="#F1F1F1" filter="url(#fdoho22yiflnl)" height="46.4883" rx="5" ry="5" style="stroke:#181818;stroke-width:0.5;" width="178.6396" x="389.68" y="560.3283"/><rect fill="#F1F1F1" height="10" style="stroke:#181818;stroke-width:0.5;" width="15" x="548.3196" y="565.3283"/><rect fill="#F1F1F1" height="2" style="stroke:#181818;stroke-width:0.5;" width="4" x="546.3196" y="567.3283"/><rect fill="#F1F1F1" height="2" style="stroke:#181818;stroke-width:0.5;" width="4" x="546.3196" y="571.3283"/><text fill="#000000" font-family="sans-serif" font-size="14" lengthAdjust="spacing" textLength="138.6396" x="404.68" y="593.8634">QualityControlAgent</text></g><!--entity DA--><g class="entity" data-entity="DA" data-source-line="20" data-uid="ent0010" id="entity_DA"><rect fill="#F1F1F1" filter="url(#fdoho22yiflnl)" height="46.4883" rx="5" ry="5" style="stroke:#181818;stroke-width:0.5;" width="184.1563" x="859.92" y="560.3283"/><rect fill="#F1F1F1" height="10" style="stroke:#181818;stroke-width:0.5;" width="15" x="1024.0763" y="565.3283"/><rect fill="#F1F1F1" height="2" style="stroke:#181818;stroke-width:0.5;" width="4" x="1022.0763" y="567.3283"/><rect fill="#F1F1F1" height="2" style="stroke:#181818;stroke-width:0.5;" width="4" x="1022.0763" y="571.3283"/><text fill="#000000" font-family="sans-serif" font-size="14" lengthAdjust="spacing" textLength="144.1563" x="874.92" y="593.8634">DocumentationAgent</text></g><!--entity TA--><g class="entity" data-entity="TA" data-source-line="21" data-uid="ent0011" id="entity_TA"><rect fill="#F1F1F1" filter="url(#fdoho22yiflnl)" height="46.4883" rx="5" ry="5" style="stroke:#181818;stroke-width:0.5;" width="144.3096" x="875.85" y="384.4683"/><rect fill="#F1F1F1" height="10" style="stroke:#181818;stroke-width:0.5;" width="15" x="1000.1596" y="389.4683"/><rect fill="#F1F1F1" height="2" style="stroke:#181818;stroke-width:0.5;" width="4" x="998.1596" y="391.4683"/><rect fill="#F1F1F1" height="2" style="stroke:#181818;stroke-width:0.5;" width="4" x="998.1596" y="395.4683"/><text fill="#000000" font-family="sans-serif" font-size="14" lengthAdjust="spacing" textLength="104.3096" x="890.85" y="418.0034">TechnicalAgent</text></g><!--entity CoA--><g class="entity" data-entity="CoA" data-source-line="22" data-uid="ent0012" id="entity_CoA"><rect fill="#F1F1F1" filter="url(#fdoho22yiflnl)" height="46.4883" rx="5" ry="5" style="stroke:#181818;stroke-width:0.5;" width="161.5703" x="1079.21" y="560.3283"/><rect fill="#F1F1F1" height="10" style="stroke:#181818;stroke-width:0.5;" width="15" x="1220.7803" y="565.3283"/><rect fill="#F1F1F1" height="2" style="stroke:#181818;stroke-width:0.5;" width="4" x="1218.7803" y="567.3283"/><rect fill="#F1F1F1" height="2" style="stroke:#181818;stroke-width:0.5;" width="4" x="1218.7803" y="571.3283"/><text fill="#000000" font-family="sans-serif" font-size="14" lengthAdjust="spacing" textLength="121.5703" x="1094.21" y="593.8634">CoordinatorAgent</text></g><!--entity CMA--><g class="entity" data-entity="CMA" data-source-line="23" data-uid="ent0013" id="entity_CMA"><rect fill="#F1F1F1" filter="url(#fdoho22yiflnl)" height="46.4883" rx="5" ry="5" style="stroke:#181818;stroke-width:0.5;" width="185.1953" x="1055.4" y="384.4683"/><rect fill="#F1F1F1" height="10" style="stroke:#181818;stroke-width:0.5;" width="15" x="1220.5953" y="389.4683"/><rect fill="#F1F1F1" height="2" style="stroke:#181818;stroke-width:0.5;" width="4" x="1218.5953" y="391.4683"/><rect fill="#F1F1F1" height="2" style="stroke:#181818;stroke-width:0.5;" width="4" x="1218.5953" y="395.4683"/><text fill="#000000" font-family="sans-serif" font-size="14" lengthAdjust="spacing" textLength="145.1953" x="1070.4" y="418.0034">CostMonitoringAgent</text></g><!--entity AA--><g class="entity" data-entity="AA" data-source-line="24" data-uid="ent0014" id="entity_AA"><rect fill="#F1F1F1" filter="url(#fdoho22yiflnl)" height="46.4883" rx="5" ry="5" style="stroke:#181818;stroke-width:0.5;" width="116.5557" x="724.72" y="384.4683"/><rect fill="#F1F1F1" height="10" style="stroke:#181818;stroke-width:0.5;" width="15" x="821.2757" y="389.4683"/><rect fill="#F1F1F1" height="2" style="stroke:#181818;stroke-width:0.5;" width="4" x="819.2757" y="391.4683"/><rect fill="#F1F1F1" height="2" style="stroke:#181818;stroke-width:0.5;" width="4" x="819.2757" y="395.4683"/><text fill="#000000" font-family="sans-serif" font-size="14" lengthAdjust="spacing" textLength="76.5557" x="739.72" y="418.0034">AuditAgent</text></g><!--entity Vector Store--><g class="entity" data-entity="Vector Store" data-source-line="29" data-uid="ent0017" id="entity_Vector Store"><rect fill="#F1F1F1" filter="url(#fdoho22yiflnl)" height="46.4883" rx="5" ry="5" style="stroke:#181818;stroke-width:0.5;" width="123.0225" x="62.49" y="814.8183"/><rect fill="#F1F1F1" height="10" style="stroke:#181818;stroke-width:0.5;" width="15" x="165.5125" y="819.8183"/><rect fill="#F1F1F1" height="2" style="stroke:#181818;stroke-width:0.5;" width="4" x="163.5125" y="821.8183"/><rect fill="#F1F1F1" height="2" style="stroke:#181818;stroke-width:0.5;" width="4" x="163.5125" y="825.8183"/><text fill="#000000" font-family="sans-serif" font-size="14" lengthAdjust="spacing" textLength="83.0225" x="77.49" y="848.3534">Vector Store</text></g><!--entity AI Generation--><g class="entity" data-entity="AI Generation" data-source-line="32" data-uid="ent0019" id="entity_AI Generation"><rect fill="#F1F1F1" filter="url(#fdoho22yiflnl)" height="46.4883" rx="5" ry="5" style="stroke:#181818;stroke-width:0.5;" width="132.5586" x="292.72" y="814.8183"/><rect fill="#F1F1F1" height="10" style="stroke:#181818;stroke-width:0.5;" width="15" x="405.2786" y="819.8183"/><rect fill="#F1F1F1" height="2" style="stroke:#181818;stroke-width:0.5;" width="4" x="403.2786" y="821.8183"/><rect fill="#F1F1F1" height="2" style="stroke:#181818;stroke-width:0.5;" width="4" x="403.2786" y="825.8183"/><text fill="#000000" font-family="sans-serif" font-size="14" lengthAdjust="spacing" textLength="92.5586" x="307.72" y="848.3534">AI Generation</text></g><!--entity Code Review--><g class="entity" data-entity="Code Review" data-source-line="33" data-uid="ent0020" id="entity_Code Review"><rect fill="#F1F1F1" filter="url(#fdoho22yiflnl)" height="46.4883" rx="5" ry="5" style="stroke:#181818;stroke-width:0.5;" width="125.8594" x="460.07" y="814.8183"/><rect fill="#F1F1F1" height="10" style="stroke:#181818;stroke-width:0.5;" width="15" x="565.9294" y="819.8183"/><rect fill="#F1F1F1" height="2" style="stroke:#181818;stroke-width:0.5;" width="4" x="563.9294" y="821.8183"/><rect fill="#F1F1F1" height="2" style="stroke:#181818;stroke-width:0.5;" width="4" x="563.9294" y="825.8183"/><text fill="#000000" font-family="sans-serif" font-size="14" lengthAdjust="spacing" textLength="85.8594" x="475.07" y="848.3534">Code Review</text></g><!--entity Issues--><g class="entity" data-entity="Issues" data-source-line="36" data-uid="ent0022" id="entity_Issues"><rect fill="#F1F1F1" filter="url(#fdoho22yiflnl)" height="46.4883" rx="5" ry="5" style="stroke:#181818;stroke-width:0.5;" width="81.9316" x="693.03" y="814.8183"/><rect fill="#F1F1F1" height="10" style="stroke:#181818;stroke-width:0.5;" width="15" x="754.9616" y="819.8183"/><rect fill="#F1F1F1" height="2" style="stroke:#181818;stroke-width:0.5;" width="4" x="752.9616" y="821.8183"/><rect fill="#F1F1F1" height="2" style="stroke:#181818;stroke-width:0.5;" width="4" x="752.9616" y="825.8183"/><text fill="#000000" font-family="sans-serif" font-size="14" lengthAdjust="spacing" textLength="41.9316" x="708.03" y="848.3534">Issues</text></g><!--entity Actions--><g class="entity" data-entity="Actions" data-source-line="37" data-uid="ent0023" id="entity_Actions"><rect fill="#F1F1F1" filter="url(#fdoho22yiflnl)" height="46.4883" rx="5" ry="5" style="stroke:#181818;stroke-width:0.5;" width="90.5381" x="809.73" y="814.8183"/><rect fill="#F1F1F1" height="10" style="stroke:#181818;stroke-width:0.5;" width="15" x="880.2681" y="819.8183"/><rect fill="#F1F1F1" height="2" style="stroke:#181818;stroke-width:0.5;" width="4" x="878.2681" y="821.8183"/><rect fill="#F1F1F1" height="2" style="stroke:#181818;stroke-width:0.5;" width="4" x="878.2681" y="825.8183"/><text fill="#000000" font-family="sans-serif" font-size="14" lengthAdjust="spacing" textLength="50.5381" x="824.73" y="848.3534">Actions</text></g><!--entity User--><g class="entity" data-entity="User" data-source-line="41" data-uid="ent0024" id="entity_User"><ellipse cx="1262.0026" cy="806.8183" fill="#F1F1F1" filter="url(#fdoho22yiflnl)" rx="8" ry="8" style="stroke:#181818;stroke-width:0.5;"/><path d="M1262.0026,814.8183 L1262.0026,841.8183 M1249.0026,822.8183 L1275.0026,822.8183 M1262.0026,841.8183 L1249.0026,856.8183 M1262.0026,841.8183 L1275.0026,856.8183" fill="none" filter="url(#fdoho22yiflnl)" style="stroke:#181818;stroke-width:0.5;"/><text fill="#000000" font-family="sans-serif" font-size="14" lengthAdjust="spacing" textLength="30.3652" x="1246.82" y="874.8534">User</text></g><g class="entity" data-entity="GMN41" data-source-line="70" data-uid="ent0042" id="entity_GMN41"><path d="M992.39,807.4383 L992.39,868.6805 A5,5 0 0 0 997.39,873.6805 L1206.6146,873.6805 A5,5 0 0 0 1211.6146,868.6805 L1211.6146,812.4383 L1201.6146,802.4383 L997.39,802.4383 A5,5 0 0 0 992.39,807.4383" fill="#FEFFDD" filter="url(#fdoho22yiflnl)" style="stroke:#181818;stroke-width:0.5;"/><path d="M1201.6146,802.4383 L1201.6146,809.9383 A2.5,2.5 0 0 0 1204.1146,812.4383 L1211.6146,812.4383 L1201.6146,802.4383" fill="#FEFFDD" style="stroke:#181818;stroke-width:1;"/><text fill="#000000" font-family="sans-serif" font-size="13" font-weight="bold" lengthAdjust="spacing" textLength="97.9126" x="998.39" y="820.0066">Google Gemini</text><text fill="#000000" font-family="sans-serif" font-size="13" lengthAdjust="spacing" textLength="120.9292" x="998.39" y="835.3172">- Cost: &#165;71/month</text><text fill="#000000" font-family="sans-serif" font-size="13" lengthAdjust="spacing" textLength="145.1772" x="998.39" y="850.6277">- Free tier: 1M req/day</text><text fill="#000000" font-family="sans-serif" font-size="13" lengthAdjust="spacing" textLength="198.2246" x="998.39" y="865.9383">- Model: gemini-2.0-flash-exp</text></g><g class="entity" data-entity="GMN44" data-source-line="77" data-uid="ent0045" id="entity_GMN44"><path d="M144.42,969.3083 L144.42,1030.5505 A5,5 0 0 0 149.42,1035.5505 L292.5782,1035.5505 A5,5 0 0 0 297.5782,1030.5505 L297.5782,974.3083 L287.5782,964.3083 L149.42,964.3083 A5,5 0 0 0 144.42,969.3083" fill="#FEFFDD" filter="url(#fdoho22yiflnl)" style="stroke:#181818;stroke-width:0.5;"/><path d="M287.5782,964.3083 L287.5782,971.8083 A2.5,2.5 0 0 0 290.0782,974.3083 L297.5782,974.3083 L287.5782,964.3083" fill="#FEFFDD" style="stroke:#181818;stroke-width:1;"/><text fill="#000000" font-family="sans-serif" font-size="13" font-weight="bold" lengthAdjust="spacing" textLength="109.4717" x="150.42" y="981.8766">Vector Database</text><text fill="#000000" font-family="sans-serif" font-size="13" lengthAdjust="spacing" textLength="132.1582" x="150.42" y="997.1872">- Knowledge storage</text><text fill="#000000" font-family="sans-serif" font-size="13" lengthAdjust="spacing" textLength="113.75" x="150.42" y="1012.4977">- Semantic search</text><text fill="#000000" font-family="sans-serif" font-size="13" lengthAdjust="spacing" textLength="102.0703" x="150.42" y="1027.8083">- Citation graph</text></g><g class="entity" data-entity="GMN47" data-source-line="84" data-uid="ent0048" id="entity_GMN47"><path d="M343.07,377.0883 L343.07,438.3305 A5,5 0 0 0 348.07,443.3305 L435,443.3305 L472.52,560.0283 L443,443.3305 L509.9284,443.3305 A5,5 0 0 0 514.9284,438.3305 L514.9284,382.0883 L504.9284,372.0883 L348.07,372.0883 A5,5 0 0 0 343.07,377.0883" fill="#FEFFDD" filter="url(#fdoho22yiflnl)" style="stroke:#181818;stroke-width:0.5;"/><path d="M504.9284,372.0883 L504.9284,379.5883 A2.5,2.5 0 0 0 507.4284,382.0883 L514.9284,382.0883 L504.9284,372.0883" fill="#FEFFDD" style="stroke:#181818;stroke-width:0.5;"/><text fill="#000000" font-family="sans-serif" font-size="13" font-weight="bold" lengthAdjust="spacing" textLength="150.8584" x="349.07" y="389.6566">Zero-Human Approval</text><text fill="#000000" font-family="sans-serif" font-size="13" lengthAdjust="spacing" textLength="148.8906" x="349.07" y="404.9672">- Auto-approval &gt;= 90</text><text fill="#000000" font-family="sans-serif" font-size="13" lengthAdjust="spacing" textLength="145.0439" x="349.07" y="420.2777">- Quality threshold: 80</text><text fill="#000000" font-family="sans-serif" font-size="13" lengthAdjust="spacing" textLength="141.1021" x="349.07" y="435.5883">- Multi-failure penalty</text></g><!--link User to CoA--><g class="link" data-entity-1="User" data-entity-2="CoA" data-source-line="44" data-uid="lnk25" id="link_User_CoA"><path d="M1260.21,798.1583 C1257.26,761.8583 1249.49,706.9583 1229,663.8183 C1218.67,642.0683 1204.948,625.8648 1189.908,611.2148" fill="none" id="User-to-CoA" style="stroke:#181818;stroke-width:1;"/><polygon fill="#181818" points="1185.61,607.0283,1189.266,616.1734,1189.1917,610.5171,1194.848,610.4428,1185.61,607.0283" style="stroke:#181818;stroke-width:1;"/><text fill="#000000" font-family="sans-serif" font-size="13" lengthAdjust="spacing" textLength="98.5664" x="1224.68" y="652.3866">Submit Request</text></g><!--link CoA to SA--><g class="link" data-entity-1="CoA" data-entity-2="SA" data-source-line="47" data-uid="lnk26" id="link_CoA_SA"><path d="M1199.05,559.9683 C1222.65,543.8983 1250.69,519.9383 1264,490.3283 C1294.62,422.2383 1305.66,379.9283 1258,322.4683 C1131.21,169.6183 492.6956,132.4683 276.1056,124.1583" fill="none" id="CoA-to-SA" style="stroke:#181818;stroke-width:1;"/><polygon fill="#181818" points="270.11,123.9283,278.95,128.2704,275.1063,124.12,279.2567,120.2763,270.11,123.9283" style="stroke:#181818;stroke-width:1;"/><text fill="#000000" font-family="sans-serif" font-size="13" lengthAdjust="spacing" textLength="70.1162" x="1251.41" y="311.0366">Route Task</text></g><!--link SA to EA--><g class="link" data-entity-1="SA" data-entity-2="EA" data-source-line="48" data-uid="lnk27" id="link_SA_EA"><path d="M197.89,144.2983 C196.81,166.1183 195.4744,193.0055 194.4044,214.7855" fill="none" id="SA-to-EA" style="stroke:#181818;stroke-width:1;"/><polygon fill="#181818" points="194.11,220.7783,198.5468,211.9854,194.3553,215.7843,190.5564,211.5928,194.11,220.7783" style="stroke:#181818;stroke-width:1;"/><text fill="#000000" font-family="sans-serif" font-size="13" lengthAdjust="spacing" textLength="97.7412" x="197.36" y="187.5466">Brand Structure</text></g><!--link EA to CA--><g class="link" data-entity-1="EA" data-entity-2="CA" data-source-line="49" data-uid="lnk28" id="link_EA_CA"><path d="M192.17,267.6783 C191.02,298.4383 189.2019,347.3824 188.0619,378.1924" fill="none" id="EA-to-CA" style="stroke:#181818;stroke-width:1;"/><polygon fill="#181818" points="187.84,384.1883,192.17,375.3423,188.0249,379.1917,184.1755,375.0465,187.84,384.1883" style="stroke:#181818;stroke-width:1;"/><text fill="#000000" font-family="sans-serif" font-size="13" lengthAdjust="spacing" textLength="75.4546" x="191.89" y="311.0366">Expressions</text></g><!--link CA to EvA--><g class="link" data-entity-1="CA" data-entity-2="EvA" data-source-line="50" data-uid="lnk29" id="link_CA_EvA"><path d="M187.52,431.4383 C188.29,464.7583 189.5714,520.5199 190.3414,553.8399" fill="none" id="CA-to-EvA" style="stroke:#181818;stroke-width:1;"/><polygon fill="#181818" points="190.48,559.8383,194.271,550.7483,190.3645,554.8396,186.2731,550.9331,190.48,559.8383" style="stroke:#181818;stroke-width:1;"/><text fill="#000000" font-family="sans-serif" font-size="13" lengthAdjust="spacing" textLength="87.5596" x="189.76" y="486.8966">Copy Variants</text></g><!--link EvA to QCA--><g class="link" data-entity-1="EvA" data-entity-2="QCA" data-source-line="51" data-uid="lnk30" id="link_EvA_QCA"><path d="M266.29,583.5783 C303.96,583.5783 343.82,583.5783 383.3,583.5783" fill="none" id="EvA-to-QCA" style="stroke:#181818;stroke-width:1;"/><polygon fill="#181818" points="389.3,583.5783,380.3,579.5783,384.3,583.5783,380.3,587.5783,389.3,583.5783" style="stroke:#181818;stroke-width:1;"/><text fill="#000000" font-family="sans-serif" font-size="13" lengthAdjust="spacing" textLength="87.1914" x="284.27" y="577.1466">Quality Check</text></g><!--link QCA to DA--><g class="link" data-entity-1="QCA" data-entity-2="DA" data-source-line="54" data-uid="lnk31" id="link_QCA_DA"><path d="M529.81,559.9683 C575.6,539.8583 645.32,512.1083 709,498.3283 C719.45,496.0683 722.31,496.9983 733,496.6183 C773.86,495.1683 784.34,492.3283 825,496.6183 C868.85,501.2483 904.7949,531.6907 927.7549,555.8307" fill="none" id="QCA-to-DA" style="stroke:#181818;stroke-width:1;"/><polygon fill="#181818" points="931.89,560.1783,928.5858,550.9002,928.4441,556.5553,922.789,556.4136,931.89,560.1783" style="stroke:#181818;stroke-width:1;"/><text fill="#000000" font-family="sans-serif" font-size="13" lengthAdjust="spacing" textLength="90.4414" x="734" y="486.8966">Quality Report</text></g><!--link TA to DA--><g class="link" data-entity-1="TA" data-entity-2="DA" data-source-line="55" data-uid="lnk32" id="link_TA_DA"><path d="M948.52,431.4383 C949.29,464.7583 950.5714,520.5199 951.3414,553.8399" fill="none" id="TA-to-DA" style="stroke:#181818;stroke-width:1;"/><polygon fill="#181818" points="951.48,559.8383,955.271,550.7483,951.3645,554.8396,947.2731,550.9331,951.48,559.8383" style="stroke:#181818;stroke-width:1;"/><text fill="#000000" font-family="sans-serif" font-size="13" lengthAdjust="spacing" textLength="94.7324" x="950.76" y="486.8966">Technical Docs</text></g><!--link CMA to CoA--><g class="link" data-entity-1="CMA" data-entity-2="CoA" data-source-line="56" data-uid="lnk33" id="link_CMA_CoA"><path d="M1149.57,431.4383 C1151.87,464.7583 1155.7168,520.5325 1158.0168,553.8525" fill="none" id="CMA-to-CoA" style="stroke:#181818;stroke-width:1;"/><polygon fill="#181818" points="1158.43,559.8383,1161.8007,550.5842,1158.0857,554.8502,1153.8197,551.1351,1158.43,559.8383" style="stroke:#181818;stroke-width:1;"/><text fill="#000000" font-family="sans-serif" font-size="13" lengthAdjust="spacing" textLength="101.6895" x="1154.28" y="486.8966">Cost Monitoring</text></g><!--link AA to QCA--><g class="link" data-entity-1="AA" data-entity-2="QCA" data-source-line="57" data-uid="lnk34" id="link_AA_QCA"><path d="M726.91,431.4083 C700.07,442.9283 667.81,457.7583 640,473.3283 C592.25,500.0583 545.2879,533.1458 513.6979,556.4558" fill="none" id="AA-to-QCA" style="stroke:#181818;stroke-width:1;"/><polygon fill="#181818" points="508.87,560.0183,518.4869,557.8932,512.8933,557.0495,513.7369,551.456,508.87,560.0183" style="stroke:#181818;stroke-width:1;"/><text fill="#000000" font-family="sans-serif" font-size="13" lengthAdjust="spacing" textLength="83.3574" x="641" y="486.8966">Audit Results</text></g><!--link SA to Gemini--><g class="link" data-entity-1="SA" data-entity-2="Gemini" data-source-line="60" data-uid="lnk35" id="link_SA_Gemini"><path d="M265.94,144.3783 C341.93,173.5483 464.14,231.6083 532,322.4683 C600.905,414.7183 623.3475,542.0858 628.4688,647.0233 C629.7491,673.2577 629.9468,698.0902 629.5173,720.6216 C629.3025,731.8873 629.2134,736.5844 628.742,746.5872" fill="none" id="SA-to-Gemini" style="stroke:#181818;stroke-width:1;"/><polygon fill="#181818" points="628.4595,752.5806,632.8788,743.7789,628.6949,747.5861,624.8877,743.4022,628.4595,752.5806" style="stroke:#181818;stroke-width:1;"/><text fill="#000000" font-family="sans-serif" font-size="13" lengthAdjust="spacing" textLength="85.9473" x="592.96" y="412.7766">AI Generation</text></g><!--link EvA to Gemini--><g class="link" data-entity-1="EvA" data-entity-2="Gemini" data-source-line="61" data-uid="lnk36" id="link_EvA_Gemini"><path d="M196.47,607.1383 C201.79,623.7283 211.68,645.1783 229,655.8183 C246.66,666.6683 586.71,649.8183 602,663.8183 C630.115,689.5683 635.1575,731.9383 633.0288,768.3308 C632.4966,777.4289 631.5162,786.1534 630.336,794.1513 C630.041,796.1508 629.7335,798.1048 629.4174,800.0079 C629.3383,800.4837 629.2588,800.9563 629.1787,801.4256 C629.1387,801.6603 630.1199,795.9817 630.0797,796.2147" fill="none" id="EvA-to-Gemini" style="stroke:#181818;stroke-width:1;"/><polygon fill="#181818" points="629.0583,802.1271,634.532,793.9394,629.9094,797.2001,626.6487,792.5776,629.0583,802.1271" style="stroke:#181818;stroke-width:1;"/><text fill="#000000" font-family="sans-serif" font-size="13" lengthAdjust="spacing" textLength="95.5259" x="230" y="652.3866">Quality Scoring</text></g><!--link QCA to Chroma--><g class="link" data-entity-1="QCA" data-entity-2="Chroma" data-source-line="62" data-uid="lnk37" id="link_QCA_Chroma"><path d="M441.3,607.2483 C412.81,623.3383 372.21,644.0783 334,655.8183 C309.55,663.3283 296.59,647.3583 277,663.8183 C261.7525,676.6283 250.6181,693.6252 242.4959,711.9725 C238.4348,721.1462 235.1268,730.6575 232.4342,740.1518 C231.761,742.5254 231.1263,744.8979 230.528,747.2639 C230.2288,748.4468 229.9387,749.6282 229.6574,750.8071 C229.5167,751.3966 229.3783,751.9855 229.242,752.5737 C229.1738,752.8679 230.4415,747.3123 230.3745,747.606" fill="none" id="QCA-to-Chroma" style="stroke:#181818;stroke-width:1;"/><polygon fill="#181818" points="229.0392,753.4556,234.9418,745.5715,230.1519,748.581,227.1424,743.7911,229.0392,753.4556" style="stroke:#181818;stroke-width:1;"/><text fill="#000000" font-family="sans-serif" font-size="13" lengthAdjust="spacing" textLength="105.6123" x="376.44" y="652.3866">Store Knowledge</text></g><!--link CoA to GH--><g class="link" data-entity-1="CoA" data-entity-2="GH" data-source-line="63" data-uid="lnk38" id="link_CoA_GH"><path d="M1131.85,607.1983 C1109.84,623.5983 1077.74,644.7583 1046,655.8183 C1031.01,661.0483 986.82,653.2183 975,663.8183 C960.5375,676.7808 950.8313,693.8552 944.4163,712.2327 C941.2088,721.4214 938.8241,730.9359 937.0791,740.4252 C936.6428,742.7975 936.2465,745.1682 935.8874,747.5318 C935.7078,748.7137 935.5375,749.8937 935.3761,751.0713 C935.3358,751.3657 936.0894,745.7127 936.0502,746.0068" fill="none" id="CoA-to-GH" style="stroke:#181818;stroke-width:1;"/><polygon fill="#181818" points="935.2568,751.9541,940.4118,743.5621,935.918,746.998,932.4821,742.5042,935.2568,751.9541" style="stroke:#181818;stroke-width:1;"/><text fill="#000000" font-family="sans-serif" font-size="13" lengthAdjust="spacing" textLength="91.3301" x="1083.78" y="652.3866">Issue Tracking</text></g><!--link TA to Gemini--><g class="link" data-entity-1="TA" data-entity-2="Gemini" data-source-line="64" data-uid="lnk39" id="link_TA_Gemini"><path d="M922.39,431.1183 C898.98,450.2383 862.54,476.7383 826,490.3283 C798.72,500.4783 784.83,481.6083 761,498.3283 C694.845,544.7433 659.8725,628.4708 641.425,701.067 C636.8131,719.2161 633.2341,736.6695 630.4588,752.6702 C630.1119,754.6703 629.7775,756.6477 629.4553,758.6009 C629.3747,759.0892 630.2597,753.654 630.1806,754.1393" fill="none" id="TA-to-Gemini" style="stroke:#181818;stroke-width:1;"/><polygon fill="#181818" points="629.2159,760.0612,634.6109,751.8215,630.0198,755.1263,626.715,750.5352,629.2159,760.0612" style="stroke:#181818;stroke-width:1;"/><text fill="#000000" font-family="sans-serif" font-size="13" lengthAdjust="spacing" textLength="79.7266" x="762" y="588.6466">Code Review</text></g><!--link DA to User--><g class="link" data-entity-1="DA" data-entity-2="User" data-source-line="67" data-uid="lnk40" id="link_DA_User"><path d="M947.25,607.2083 C945.36,623.1683 946.1,643.7683 959,655.8183 C980.93,676.2983 1206.16,644.3383 1229,663.8183 C1266.97,696.1983 1270.3915,751.5931 1267.5515,791.9231" fill="none" id="DA-to-User" style="stroke:#181818;stroke-width:1;"/><polygon fill="#181818" points="1267.13,797.9083,1271.7523,789.2115,1267.4812,792.9206,1263.7721,788.6495,1267.13,797.9083" style="stroke:#181818;stroke-width:1;"/><text fill="#000000" font-family="sans-serif" font-size="13" lengthAdjust="spacing" textLength="77.9873" x="960" y="652.3866">Final Output</text></g><!--link Gemini to GMN41--><g class="link" data-entity-1="Gemini" data-entity-2="GMN41" data-source-line="70" data-uid="lnk43" id="link_Gemini_GMN41"><path d="M626.6684,752.119 C626.7936,751.4632 626.9212,750.8067 627.0513,750.1495 C635.3775,708.0908 653.93,663.4283 694.5,647.3183 C744.07,627.6383 884.93,627.6383 934.5,647.3183 C1006.59,675.9483 1058.73,755.3683 1084.27,802.2083" fill="none" id="Gemini-GMN41" style="stroke:#181818;stroke-width:1;stroke-dasharray:7,7;"/></g><!--link Chroma to GMN44--><g class="link" data-entity-1="Chroma" data-entity-2="GMN44" data-source-line="77" data-uid="lnk46" id="link_Chroma_GMN44"><path d="M221,885.6158 C221,910.6583 221,941.0283 221,964.0183" fill="none" id="Chroma-GMN44" style="stroke:#181818;stroke-width:1;stroke-dasharray:7,7;"/></g><!--SRC=[NLHTQzn657tNhxWu3mM36Zl6D5beGDPAiIbBQckRXnO_p4fZQR1Meyp7sgO4wXKKIYa4-l5KIcdQqfUsBqrBIw3GloAIDl-YTqQpAtbPLg1pvfvxTEVCAAPA2b6YI7hk7mXIPVw1PcL61RJBFzhbdstpSTjysow_QviNxV9dyxhyjMsks-QPvybpLjL4a3dCi3uNN5TPo4iku5OScTzWXILJBYgKtjqP4B8W6RzWLGvAQEfvDKgHdC9Mo0M58AULabjmAzgBxyHZ-D03-231bQdIWbhs58Y49314T5aBAYNZLSz47RCWfIRg9hEmLCZhgnuC0-_9mCIn9YLJLmCVT-Fzw5xdmv4XhvJWPQznl26IwBhcGlKYSHplHJkTo9YdUexuXhcnzJQbQL6nb0p4fyuq5nchYE9Yu9qxJge9hnXoEDO1FR5qe3EcUZIuwJMwL5HKf8I4YWLBgRMx5-t7-zPkHXIP4Mcsfn1yJiO7MrRQljWLsE4HJR4t9FYWfmWzmNzQSft1rWCwPnM3uDqZM-TUNLrmX006n8xYjCD2db4ueGj6BpQbc3hKiqxcS2Ln9AMcqjK6gH6INHr-9B6stfDKUDuRq3O_sb3_RfxNdxRBJzhhNzhcoxR1cB_mp3Bm_VjcgZ22HC_cJA6JnwYlJ7sVJ-Yhp69Jb9YQ4wuLXIcHvrxImP61xJc3TOYzgED2m_K9bbxeQXQ6C2c5HqGmWX7o36QuOrkq2cbOqFJSMBiHE7ZzqRDNJ__oZftUU5XoGir2RpgWrfa3Z2Qwc0I3CPXiGHykBnZwiCb2IQbBz8W-Ndx_rUlcftRvt8ou-Hpl4-V5ZSDjFrOETtxzTMjwvJP9kwwhJt6n6tLHWtSgVb7IBAVhRS1WZC1c0gO28swAfnlYWuGPp_y-V_hgcwyn2l_z_SNBptxpnjro6uSHnCoSZOTQrHf3K77SNy7oGW4_SueOjktj1vpdUB5soFOsOhuTtGZ- -U6jtTjpl34A2yQ2Kb2CYX7iJa3GnxSpScMP2TegHv1R2V_Ecpl-MKbauTFBsgEO7zFREPXnfVZSMEW6OYsuGpXs1zQPM8y89B9uuYsQq3d6YgKWAH5fvonatPK4kI1riTbIyThqCpUTQVO-5Tm_rAW2GLqBZhUjQnXenNtYCBZ_DjpRiVXgIrM1UIzucOtWRiTCC3tCFoEinCC1DSM1gwk-__y0]--></g></svg>